<?xml version="1.0" standalone="no"?>
<!DOCTYPE svg PUBLIC "-//W3C//DTD SVG 20010904//EN"
 "http://www.w3.org/TR/2001/REC-SVG-20010904/DTD/svg10.dtd">
<svg version="1.0" xmlns="http://www.w3.org/2000/svg"
 width="500.000000pt" height="500.000000pt" viewBox="0 0 500.000000 500.000000"
 preserveAspectRatio="xMidYMid meet">
<metadata>
Created by potrace 1.14, written by Peter Selinger 2001-2017
</metadata>
<g transform="translate(0.000000,500.000000) scale(0.100000,-0.100000)"
fill="#000000" stroke="none">
<path d="M1440 4300 c-92 -21 -124 -43 -135 -92 -4 -16 -12 -31 -19 -35 -7 -5
-19 -26 -26 -48 -7 -22 -16 -45 -21 -51 -5 -6 -4 -26 2 -45 6 -19 12 -52 14
-74 9 -101 63 -230 120 -285 19 -18 35 -39 35 -46 0 -6 6 -14 14 -17 19 -8 28
-47 10 -47 -20 0 -17 -25 11 -104 13 -39 22 -72 20 -75 -3 -2 0 -10 6 -17 10
-13 -7 -54 -23 -54 -4 0 -14 -15 -23 -34 -9 -18 -26 -44 -38 -57 -12 -13 -21
-27 -19 -32 1 -4 -5 -21 -13 -38 -9 -16 -14 -33 -11 -37 6 -10 -14 -36 -38
-49 -15 -8 -19 -25 -22 -84 -5 -101 -7 -110 -26 -139 -13 -21 -22 -62 -39
-178 -1 -4 0 -10 1 -14 5 -21 2 -159 -3 -165 -4 -3 -7 -16 -7 -27 0 -11 -11
-43 -24 -71 -33 -71 -46 -115 -34 -115 5 0 2 -7 -7 -16 -9 -9 -19 -14 -22 -10
-4 3 -17 -4 -30 -16 -19 -18 -23 -19 -23 -5 0 9 -4 17 -9 17 -5 0 -8 -8 -7
-17 0 -10 -5 -17 -12 -15 -16 3 -173 -148 -220 -212 -20 -28 -53 -71 -73 -96
-20 -25 -47 -65 -59 -90 -12 -25 -37 -66 -56 -92 -27 -39 -32 -54 -30 -92 1
-26 -1 -42 -4 -35 -10 16 -22 -5 -14 -25 3 -9 1 -16 -5 -16 -6 0 -11 -4 -11
-10 0 -5 9 -10 20 -10 11 0 20 -5 20 -11 0 -5 -4 -8 -9 -4 -6 3 -8 -15 -6 -45
2 -27 -1 -50 -6 -50 -5 0 -9 -7 -9 -16 0 -13 3 -14 15 -4 12 10 16 8 25 -15 5
-14 10 -32 10 -40 0 -8 5 -17 12 -21 7 -5 5 -12 -8 -21 -17 -14 -16 -14 14 -8
20 4 38 2 47 -5 11 -9 12 -7 8 11 -5 18 -3 20 16 14 15 -5 21 -2 21 9 0 9 5
16 10 16 6 0 10 -7 10 -15 0 -8 10 -20 22 -26 22 -12 22 -11 6 8 -10 11 -18
27 -18 36 0 24 -20 31 -34 11 -7 -9 -18 -14 -24 -10 -15 9 -42 -4 -42 -21 0
-8 -4 -11 -10 -8 -5 3 -10 19 -10 35 0 16 -4 31 -9 34 -5 3 -8 17 -8 31 0 21
3 24 25 18 19 -4 23 -3 18 8 -3 8 -9 22 -12 32 -6 15 -17 21 -36 18 -4 0 -4 9
1 21 5 14 17 22 35 23 15 0 31 7 35 14 5 8 14 10 20 7 6 -4 25 4 41 18 17 14
37 23 45 20 8 -4 15 -1 15 6 0 9 11 11 34 7 24 -4 39 -1 47 9 6 8 14 12 17 10
2 -3 21 3 42 14 27 14 40 16 48 8 9 -9 16 -8 29 4 22 18 121 22 141 6 10 -9
15 -9 21 0 4 7 19 8 45 2 21 -5 45 -6 52 -3 8 3 21 0 29 -7 11 -9 19 -8 37 4
20 14 21 16 4 16 -11 0 -28 7 -38 17 -12 10 -18 12 -18 4 0 -16 -122 -9 -128
7 -2 7 1 12 7 12 6 0 11 9 11 19 0 26 17 36 36 20 12 -10 13 -9 8 4 -5 13 -34
32 -38 25 -1 -2 -14 -22 -29 -46 -24 -37 -32 -42 -60 -41 -18 1 -42 -1 -54 -5
-18 -6 -32 2 -73 40 -28 26 -52 45 -54 43 -2 -2 -9 -14 -15 -26 -13 -26 -4
-31 14 -7 10 15 13 15 26 0 25 -28 39 -45 39 -49 0 -6 -42 -20 -52 -18 -5 1
-8 -3 -8 -9 0 -5 -11 -10 -25 -10 -14 0 -25 5 -25 10 0 6 5 10 10 10 6 0 10
10 10 23 0 18 -5 14 -25 -20 -25 -41 -55 -60 -75 -48 -6 3 -17 -1 -26 -9 -21
-21 -26 -21 -68 13 -21 17 -44 27 -52 24 -11 -4 -14 4 -14 33 0 35 1 37 15 18
12 -16 14 -16 15 -3 0 14 54 49 74 49 4 0 23 10 44 23 59 36 213 90 257 90 50
0 177 -13 187 -19 4 -2 28 -6 54 -8 43 -4 53 -11 116 -74 75 -75 81 -98 22
-89 -19 3 -36 2 -39 -3 -8 -13 22 -20 53 -11 16 5 36 5 45 -1 10 -5 21 -7 26
-3 5 3 12 1 16 -4 3 -5 30 -24 60 -41 52 -30 76 -59 38 -46 -15 5 -15 4 1 -9
14 -11 23 -12 32 -4 10 8 24 3 56 -20 23 -17 49 -31 57 -31 9 0 34 -11 56 -25
22 -13 47 -25 56 -25 9 0 23 -8 30 -17 12 -15 12 -16 -3 -10 -28 10 -21 -8 7
-21 34 -16 40 -15 26 2 -10 12 -8 14 11 9 51 -11 158 -59 158 -70 0 -7 4 -13
8 -13 5 0 15 -6 23 -12 8 -7 12 -12 10 -11 -10 6 -41 -19 -41 -32 0 -8 -7 -15
-16 -15 -9 0 -14 -5 -12 -12 8 -24 29 -18 68 21 40 39 60 50 60 33 0 -4 -6
-14 -12 -22 -7 -7 1 -4 18 8 l30 21 87 -36 87 -35 63 25 c91 38 104 40 111 21
5 -13 9 -14 21 -4 13 11 20 9 40 -10 30 -28 27 -34 -9 -20 l-27 10 18 -24 c15
-20 21 -22 38 -13 11 6 25 10 32 9 24 -5 23 18 -1 30 -28 12 -35 38 -11 38 8
0 15 8 15 18 0 20 20 31 110 64 56 20 70 26 176 73 34 15 66 25 71 22 6 -4 21
4 34 16 37 35 71 50 80 35 6 -9 13 -9 31 -1 l23 12 -24 0 c-31 1 -21 11 39 43
25 13 52 28 60 33 8 6 22 10 30 11 8 1 23 2 33 3 10 0 17 9 17 20 0 11 17 32
38 48 20 15 48 38 62 51 31 29 76 53 83 46 3 -3 12 -2 19 2 7 4 19 9 28 10 8
1 33 5 55 9 22 3 51 8 65 10 14 2 27 4 30 5 3 2 9 2 14 1 5 -1 39 -4 76 -5 37
-2 77 -7 89 -11 17 -5 21 -2 21 13 0 15 5 19 20 15 24 -6 27 -23 4 -23 -8 0
-12 -5 -9 -10 4 -6 11 -8 16 -4 5 3 20 -1 33 -10 28 -18 44 -9 18 10 -16 12
-15 13 6 14 13 0 31 -8 40 -17 16 -16 16 -16 0 -10 -10 3 -18 2 -18 -4 0 -5
12 -14 28 -19 49 -18 143 -69 154 -85 5 -5 -4 -21 -20 -34 -17 -16 -20 -22 -9
-18 10 4 23 7 28 7 5 0 9 7 9 15 0 18 12 19 28 3 10 -10 15 -10 23 2 9 13 10
13 8 0 -3 -26 1 -40 10 -40 8 0 7 59 -3 140 -2 20 -11 52 -19 72 -13 32 -144
166 -242 249 -22 19 -41 37 -43 42 -2 4 -9 7 -15 7 -21 1 -70 47 -63 59 5 7
-1 10 -16 8 -14 -1 -23 4 -24 13 -3 32 -5 34 -14 20 -9 -13 -11 -13 -20 0 -5
8 -15 15 -22 16 -33 3 -38 5 -36 22 3 42 -4 63 -29 88 -16 14 -23 28 -17 30
11 5 7 61 -6 69 -4 2 -4 25 0 51 8 51 4 81 -14 103 -8 10 -8 15 1 18 12 4 10
47 -8 146 -6 34 -12 75 -14 91 -1 17 -7 32 -13 34 -7 2 -12 24 -12 50 0 29 -6
52 -17 65 -12 13 -14 21 -7 24 17 6 5 41 -20 59 -15 12 -17 17 -8 21 11 4 10
8 -1 22 -8 9 -20 34 -27 56 -14 43 -32 75 -67 118 -12 15 -20 34 -17 41 3 8 1
17 -4 20 -13 8 -6 93 12 141 8 22 10 41 5 43 -5 2 -9 17 -9 32 0 21 9 36 35
55 49 38 124 170 130 232 2 17 11 43 20 56 12 19 15 38 10 74 -3 26 -5 60 -5
75 0 15 -4 29 -10 33 -5 3 -10 13 -10 22 0 9 -11 31 -25 49 -14 18 -25 37 -25
43 0 6 -12 18 -27 28 -16 10 -31 22 -34 26 -21 29 -183 29 -249 0 -48 -22
-195 -174 -219 -228 -33 -75 -64 -78 -231 -19 -85 29 -184 41 -205 24 -9 -7
-19 -10 -22 -6 -4 4 -1 11 7 17 11 7 7 8 -14 5 -16 -3 -33 -11 -38 -18 -6 -10
-8 -10 -8 2 0 10 -3 11 -8 3 -12 -19 -47 -20 -46 -1 1 14 -4 17 -22 13 -13 -3
-36 -8 -51 -11 -16 -3 -29 0 -34 8 -7 10 -9 9 -9 -3 0 -9 -7 -20 -16 -23 -15
-6 -15 -4 -3 11 13 15 12 16 -6 9 -11 -4 -25 -9 -32 -10 -7 -1 -14 -4 -17 -7
-8 -8 -116 3 -111 12 10 15 -41 21 -100 10 -32 -6 -82 -22 -112 -37 -31 -14
-72 -28 -92 -31 -20 -3 -41 -9 -47 -14 -19 -15 -71 28 -104 86 -43 76 -122
170 -168 200 -28 18 -55 25 -112 29 -41 2 -91 1 -110 -4z m1117 -246 c-3 -3
-12 -4 -19 -1 -8 3 -5 6 6 6 11 1 17 -2 13 -5z m173 -124 c0 -5 -5 -10 -11
-10 -5 0 -7 5 -4 10 3 6 8 10 11 10 2 0 4 -4 4 -10z m-244 -57 c14 -15 8 -47
-12 -64 -11 -9 -14 -7 -14 10 0 11 4 21 10 21 6 0 6 9 0 26 -6 14 -10 31 -9
37 0 7 3 5 6 -3 4 -8 12 -20 19 -27z m-46 6 c0 -5 -4 -9 -10 -9 -5 0 -10 7
-10 16 0 8 5 12 10 9 6 -3 10 -10 10 -16z m-253 -115 c-3 -3 -12 -4 -19 -1 -8
3 -5 6 6 6 11 1 17 -2 13 -5z m553 -14 c12 -8 11 -10 -7 -10 -13 0 -23 5 -23
10 0 13 11 13 30 0z m-176 -35 c7 -20 -4 -46 -17 -38 -7 4 -8 0 -3 -13 5 -10
11 -28 14 -39 5 -18 4 -18 -11 -6 -9 7 -17 20 -17 27 0 20 -10 17 -32 -8 -13
-15 -18 -33 -16 -50 3 -16 1 -28 -4 -28 -4 0 -8 7 -8 16 0 9 -9 18 -20 21 -11
3 -20 10 -20 15 0 5 9 6 20 3 11 -4 20 -2 20 4 0 6 -4 11 -10 11 -5 0 -10 5
-10 10 0 6 9 10 20 10 17 0 19 2 8 15 -11 12 -15 11 -27 -6 -13 -18 -15 -19
-32 -3 -17 15 -19 15 -19 1 0 -9 -5 -19 -11 -23 -7 -4 -9 1 -7 12 3 11 -2 31
-9 47 -12 23 -12 27 2 27 8 0 15 -6 15 -12 0 -9 4 -8 10 2 8 12 10 11 10 -6 0
-12 7 -24 15 -28 8 -3 15 -1 15 4 0 6 9 10 20 10 11 0 20 4 20 10 0 5 7 7 15
4 8 -4 15 -1 15 6 0 6 4 9 9 5 5 -3 12 -1 16 5 9 15 22 12 29 -5z m194 -12 c8
9 20 13 28 10 19 -7 18 -23 -2 -23 -13 0 -15 -8 -12 -35 2 -19 1 -35 -3 -35
-10 0 -20 30 -13 41 9 15 -8 10 -28 -8 -10 -9 -18 -11 -18 -5 0 6 5 14 11 17
6 4 8 13 5 21 -3 8 -2 22 1 32 6 14 8 13 13 -7 5 -21 7 -22 18 -8z m-141 -15
c-2 -32 -21 -50 -36 -35 -16 16 -14 37 4 37 8 0 15 5 15 10 0 6 4 10 9 10 6 0
9 -10 8 -22z m-256 -36 c-15 -5 -13 -32 3 -61 14 -25 10 -65 -5 -55 -5 3 -14
-6 -21 -20 -13 -30 -23 -33 -32 -10 -4 11 -2 15 8 11 13 -5 13 -1 0 35 -14 40
-11 64 7 53 5 -4 9 -2 9 3 0 18 -30 22 -30 4 -1 -14 -2 -15 -9 -2 -13 23 -24
68 -13 51 5 -7 15 -10 21 -7 6 4 14 0 17 -9 9 -23 34 1 35 34 l0 26 10 -25 c7
-17 7 -26 0 -28z m349 31 c-1 -11 -26 -43 -33 -43 -4 0 -1 11 5 25 10 23 28
35 28 18z m-452 -62 c27 -29 32 -41 30 -75 -3 -43 -15 -62 -35 -60 -7 1 -19 2
-26 3 -7 0 -24 20 -37 44 l-23 42 26 -24 c34 -30 38 -7 6 33 -17 22 -18 25 -3
19 15 -5 16 -2 10 23 -4 16 -12 31 -17 32 -5 2 -9 8 -9 12 0 15 43 -13 78 -49z
m485 -26 c-6 -17 8 -20 23 -6 5 5 19 12 32 16 22 6 22 6 -3 -19 -14 -14 -25
-33 -25 -43 1 -14 6 -12 25 12 29 35 31 29 10 -22 -8 -20 -14 -37 -13 -39 4
-4 39 23 39 30 -3 21 2 34 19 56 l20 25 -3 -30 c-1 -16 -10 -38 -19 -47 -10
-10 -18 -26 -18 -35 1 -16 2 -16 13 -3 7 9 21 14 31 12 15 -3 16 -6 5 -13 -11
-7 -10 -9 4 -9 26 0 17 -18 -22 -42 l-33 -22 6 22 c9 28 -2 28 -39 -2 l-30
-25 25 -10 c24 -10 24 -10 -7 -8 -43 2 -48 20 -12 41 37 22 38 38 2 30 -26 -6
-27 -5 -9 8 13 10 15 17 8 22 -7 4 -12 2 -12 -4 0 -7 -7 -9 -16 -6 -8 3 -12 2
-9 -4 3 -6 -1 -10 -11 -10 -15 0 -15 2 0 25 20 30 20 31 2 38 -10 4 -13 1 -9
-9 3 -8 1 -20 -5 -27 -5 -6 -12 -21 -15 -32 -5 -19 -5 -19 -12 3 -4 12 -12 22
-17 22 -5 0 -6 9 -3 21 5 16 3 20 -12 17 -14 -2 -19 4 -21 31 -2 18 2 39 9 45
9 8 10 5 5 -16 -4 -17 -2 -28 4 -28 5 0 10 4 10 8 0 5 7 17 14 28 14 17 15 13
11 -43 -2 -35 0 -63 6 -63 10 0 10 0 14 49 3 38 24 83 36 75 5 -2 6 -11 2 -19z
m477 -5 c0 -5 -2 -10 -4 -10 -3 0 -8 5 -11 10 -3 6 -1 10 4 10 6 0 11 -4 11
-10z m-1065 -37 c9 -21 25 -44 34 -51 13 -10 13 -14 2 -21 -9 -6 -10 -11 -2
-15 20 -13 12 -27 -8 -16 -27 14 -31 13 -24 -6 5 -15 3 -15 -25 0 -40 20 -54
41 -21 31 21 -7 22 -6 10 9 -11 14 -11 16 2 16 8 0 18 -8 22 -17 6 -17 7 -17
17 0 7 14 5 22 -12 37 -22 19 -37 70 -21 70 5 0 16 -17 26 -37z m435 -9 c0
-16 -16 -19 -25 -4 -8 13 4 32 16 25 5 -4 9 -13 9 -21z m-176 0 c3 -8 2 -12
-4 -9 -6 3 -10 10 -10 16 0 14 7 11 14 -7z m-34 -44 c0 -5 -4 -10 -10 -10 -5
0 -10 5 -10 10 0 6 5 10 10 10 6 0 10 -4 10 -10z m250 0 c0 -5 -5 -10 -11 -10
-5 0 -7 5 -4 10 3 6 8 10 11 10 2 0 4 -4 4 -10z m-405 -30 c3 -5 1 -10 -4 -10
-6 0 -11 5 -11 10 0 6 2 10 4 10 3 0 8 -4 11 -10z m85 -10 c0 -5 -2 -10 -4
-10 -3 0 -8 5 -11 10 -3 6 -1 10 4 10 6 0 11 -4 11 -10z m620 -14 c0 -2 -7 -6
-15 -10 -8 -3 -15 -1 -15 4 0 6 7 10 15 10 8 0 15 -2 15 -4z m-693 -30 c0 -8
-6 -12 -14 -9 -7 3 -10 9 -7 14 8 14 21 11 21 -5z m-27 -26 c0 -5 -2 -10 -4
-10 -3 0 -8 5 -11 10 -3 6 -1 10 4 10 6 0 11 -4 11 -10z m-100 -15 c0 -9 -8
-19 -17 -22 -10 -4 -21 -11 -24 -16 -4 -5 -12 -6 -18 -3 -13 8 10 36 28 36 6
0 11 5 11 10 0 6 5 10 10 10 6 0 10 -7 10 -15z m802 3 c12 -7 28 -19 36 -26
22 -20 -12 -27 -41 -7 -47 31 -42 59 5 33z m-462 -23 c-7 -8 -17 -15 -22 -15
-6 0 -5 7 2 15 7 8 17 15 22 15 6 0 5 -7 -2 -15z m59 -14 c12 -7 12 -13 3 -24
-10 -11 -7 -16 14 -26 24 -11 26 -10 22 7 -3 11 0 19 8 19 8 0 14 -7 14 -15 0
-8 6 -12 15 -8 8 3 15 1 15 -4 0 -6 5 -10 10 -10 6 0 9 3 9 8 -4 22 3 24 17 4
8 -12 20 -20 25 -17 5 4 9 -2 9 -12 1 -26 33 -64 57 -66 11 0 19 -6 16 -13 -2
-6 12 -27 32 -47 33 -33 35 -38 35 -104 0 -48 6 -80 19 -106 10 -20 21 -47 25
-60 3 -13 17 -36 31 -53 14 -16 25 -34 25 -40 0 -5 13 -23 30 -39 35 -34 46
-66 55 -162 8 -85 4 -97 -30 -81 -33 15 -46 0 -17 -19 22 -15 30 -43 13 -43
-5 0 -11 -10 -13 -22 -2 -15 -11 -24 -27 -26 -13 -2 -26 -12 -28 -23 -3 -10
-14 -19 -24 -19 -11 0 -19 -6 -19 -14 0 -18 -8 -24 -48 -31 -19 -3 -32 -1 -32
5 0 5 8 10 18 10 14 0 15 2 2 10 -12 7 -8 11 17 16 18 3 31 10 30 14 -1 5 7
15 18 23 11 9 17 19 13 23 -4 4 -13 2 -20 -4 -20 -16 -82 -8 -86 12 -2 9 -8
16 -13 16 -34 0 -44 75 -13 93 8 4 14 19 14 33 0 14 7 38 15 54 10 20 13 47 9
92 -5 67 -16 90 -35 71 -6 -6 -18 -9 -25 -6 -8 3 -14 -1 -14 -11 0 -9 5 -16
10 -16 6 0 10 -4 10 -10 0 -5 -12 -10 -27 -10 -18 0 -24 -3 -15 -8 10 -7 10
-13 0 -33 -12 -23 -16 -24 -59 -14 -25 5 -54 17 -64 24 -24 21 -118 21 -141
-1 -25 -22 -96 -36 -92 -17 2 7 -5 15 -15 17 -15 3 -18 -1 -15 -24 2 -16 -2
-29 -10 -32 -9 -3 -11 3 -6 22 4 16 2 26 -5 26 -6 0 -11 8 -11 18 0 13 2 14 9
4 7 -12 12 -12 30 -1 24 15 29 31 7 23 -10 -4 -16 2 -18 18 -2 13 -7 22 -13
21 -5 -1 -15 3 -21 8 -20 16 -34 -15 -36 -82 -1 -35 4 -74 10 -86 7 -12 12
-32 12 -44 0 -12 7 -27 16 -33 8 -6 16 -27 17 -46 2 -28 -3 -37 -20 -45 -13
-5 -23 -16 -23 -23 0 -7 -8 -12 -17 -10 -10 1 -23 -1 -30 -5 -7 -4 -21 -2 -32
5 -28 17 -40 1 -13 -18 12 -8 20 -19 17 -24 -3 -4 6 -11 20 -14 16 -4 22 -11
19 -21 -5 -11 -1 -14 12 -9 17 5 17 4 2 -5 -20 -13 -68 5 -68 26 0 7 -9 13
-20 13 -11 0 -20 7 -20 15 0 9 -11 20 -24 25 -13 5 -31 23 -40 41 -17 34 -12
57 9 39 10 -8 13 -4 13 15 0 23 -3 25 -29 20 -26 -6 -29 -4 -30 22 -5 109 19
199 60 225 12 7 21 18 21 25 0 6 11 24 24 40 13 15 27 39 31 53 4 14 16 42 26
62 12 24 19 62 21 108 1 65 4 73 35 105 18 19 33 41 33 50 0 13 18 20 43 16 4
0 7 8 7 19 0 13 5 17 14 14 11 -4 13 0 9 15 -4 17 -2 20 11 15 11 -4 16 -1 16
11 0 13 6 16 26 11 16 -4 23 -3 19 3 -3 6 0 9 7 6 7 -3 27 8 43 24 33 32 43
35 64 22z m466 -39 c-8 -8 -25 10 -19 20 4 6 9 5 15 -3 4 -7 6 -15 4 -17z
m-123 -24 c-6 -6 -15 -8 -19 -4 -4 4 -1 11 7 16 19 12 27 3 12 -12z m-692 2
c0 -5 -4 -10 -9 -10 -6 0 -13 5 -16 10 -3 6 1 10 9 10 9 0 16 -4 16 -10z m737
-136 c-3 -3 -12 -4 -19 -1 -8 3 -5 6 6 6 11 1 17 -2 13 -5z m-176 -478 c-6 -7
-9 -21 -5 -30 3 -9 1 -16 -5 -16 -15 0 -14 48 2 64 15 17 23 0 8 -18z m-421
-346 c27 -24 42 -26 34 -5 -10 26 23 17 44 -11 17 -24 26 -27 86 -29 90 -3
126 6 161 41 18 18 30 24 33 16 4 -14 38 -16 47 -2 3 6 13 10 22 10 9 0 14 -3
11 -6 -4 -3 0 -17 8 -32 8 -16 10 -30 4 -37 -5 -6 -22 -35 -37 -64 -19 -37
-39 -60 -64 -73 -40 -21 -78 -15 -58 8 6 8 16 14 21 14 18 0 79 53 94 81 21
41 17 58 -7 29 -18 -21 -29 -24 -85 -25 -35 0 -64 4 -64 8 0 9 -135 3 -202 -9
-34 -6 -39 -4 -55 25 -10 17 -21 31 -25 31 -27 0 30 -89 79 -125 46 -33 57
-61 21 -50 -43 12 -71 41 -103 102 -31 60 -32 63 -14 79 10 9 15 22 12 30 -7
20 10 17 37 -6z m-1110 -235 c0 -7 -11 -12 -25 -12 -26 0 -34 12 -12 20 22 7
37 4 37 -8z m-70 -5 c0 -10 -2 -11 -57 -16 -40 -3 -44 13 -5 19 50 8 62 7 62
-3z m2652 -12 c-7 -7 -12 -8 -12 -2 0 14 12 26 19 19 2 -3 -1 -11 -7 -17z
m108 8 c18 -7 29 -16 24 -18 -14 -9 -74 3 -74 14 0 6 -6 5 -15 -2 -12 -10 -15
-10 -15 4 0 20 35 21 80 2z m-2870 -4 c0 -10 -50 -35 -57 -28 -3 2 8 11 24 20
34 18 33 18 33 8z m2973 -34 c28 -10 37 -28 14 -28 -22 0 -77 30 -77 42 0 6 8
7 18 3 9 -4 29 -12 45 -17z m57 -28 c0 -5 -4 -10 -10 -10 -5 0 -10 5 -10 10 0
6 5 10 10 10 6 0 10 -4 10 -10z m-3170 -19 c0 -5 -7 -12 -16 -15 -14 -5 -15
-4 -4 9 14 17 20 19 20 6z m366 -12 c3 -5 -4 -9 -14 -9 -33 0 -82 12 -78 19 6
9 85 1 92 -10z m2839 11 c3 -5 1 -10 -4 -10 -6 0 -11 5 -11 10 0 6 2 10 4 10
3 0 8 -4 11 -10z m-3035 -4 c0 -2 -7 -6 -15 -10 -8 -3 -15 -1 -15 4 0 6 7 10
15 10 8 0 15 -2 15 -4z m37 -2 c-3 -3 -12 -4 -19 -1 -8 3 -5 6 6 6 11 1 17 -2
13 -5z m3067 -33 c-6 -6 -54 21 -54 30 0 5 13 0 29 -9 16 -9 28 -19 25 -21z
m-344 19 c0 -5 -12 -10 -27 -10 -16 0 -41 -7 -56 -15 -19 -10 -27 -11 -25 -3
8 23 108 49 108 28z m113 -9 c21 -7 36 -15 34 -18 -8 -7 -126 20 -121 28 5 9
40 5 87 -10z m-2997 -26 c-11 -8 -25 -15 -30 -15 -6 0 -2 7 8 15 11 8 25 15
30 15 6 0 2 -7 -8 -15z m3264 5 c0 -5 -4 -10 -10 -10 -5 0 -10 5 -10 10 0 6 5
10 10 10 6 0 10 -4 10 -10z m-109 -26 c69 -35 57 -39 -21 -7 -76 30 -81 33
-51 33 12 0 44 -12 72 -26z m-2951 -22 c0 -4 -25 -7 -55 -7 -30 0 -55 3 -55 8
0 4 25 7 55 7 30 0 55 -3 55 -8z m71 -7 c33 -14 33 -14 7 -15 -32 0 -58 9 -58
21 0 13 13 11 51 -6z m-227 -19 c-10 -8 -21 -12 -24 -10 -5 6 21 24 34 24 6 0
1 -6 -10 -14z m311 4 c4 -6 -5 -10 -19 -10 -14 0 -26 5 -26 10 0 6 9 10 19 10
11 0 23 -4 26 -10z m2485 -10 c0 -14 -23 -22 -63 -24 -18 -1 -38 -5 -45 -10
-7 -4 -25 -9 -40 -11 -24 -3 -25 -2 -7 11 10 8 35 16 54 20 20 3 45 9 56 14
28 12 45 12 45 0z m179 -6 c3 -2 -1 -10 -7 -16 -7 -7 -12 -8 -12 -2 0 5 -28
10 -63 11 -90 2 -89 2 -81 14 6 11 152 5 163 -7z m339 -50 c-5 -5 -78 32 -92
47 -6 6 13 -1 42 -16 30 -14 52 -28 50 -31z m-308 36 c0 -5 -4 -10 -10 -10 -5
0 -10 5 -10 10 0 6 5 10 10 10 6 0 10 -4 10 -10z m-3080 -4 c0 -11 -19 -15
-25 -6 -3 5 1 10 9 10 9 0 16 -2 16 -4z m3270 -50 c0 -3 -4 -8 -10 -11 -5 -3
-10 -1 -10 4 0 6 5 11 10 11 6 0 10 -2 10 -4z m45 -34 c-7 -8 -35 7 -35 18 0
6 7 6 20 -2 10 -7 17 -14 15 -16z m-3480 8 c-3 -5 -12 -10 -18 -10 -7 0 -6 4
3 10 19 12 23 12 15 0z m3515 -20 c0 -5 -4 -10 -10 -10 -5 0 -10 5 -10 10 0 6
5 10 10 10 6 0 10 -4 10 -10z m50 -32 c0 -12 -14 -10 -28 4 -19 19 -14 29 8
16 11 -7 20 -16 20 -20z m-3589 -97 c12 -12 19 -24 18 -25 -30 -26 -109 -43
-109 -24 0 4 7 8 16 8 15 0 14 10 -2 55 -8 20 57 8 77 -14z m-82 -162 c-16
-10 -23 -4 -14 10 3 6 11 8 17 5 6 -4 5 -9 -3 -15z"/>
<path d="M2330 3575 c0 -8 5 -15 10 -15 6 0 10 7 10 15 0 8 -4 15 -10 15 -5 0
-10 -7 -10 -15z"/>
<path d="M2230 3606 c0 -8 7 -16 15 -20 13 -4 14 -2 5 14 -13 23 -20 26 -20 6z"/>
<path d="M2242 3543 c14 -34 35 -58 23 -28 -4 11 -10 28 -12 38 -3 9 -9 17
-14 17 -5 0 -3 -12 3 -27z"/>
<path d="M2740 3560 c0 -5 5 -10 10 -10 6 0 10 5 10 10 0 6 -4 10 -10 10 -5 0
-10 -4 -10 -10z"/>
<path d="M2450 3301 c-7 -13 -7 -22 0 -26 6 -3 13 2 17 12 4 10 11 21 17 25 7
5 4 8 -6 8 -10 0 -22 -9 -28 -19z"/>
<path d="M2660 2859 c0 -5 5 -7 10 -4 6 3 10 8 10 11 0 2 -4 4 -10 4 -5 0 -10
-5 -10 -11z"/>
<path d="M2484 2847 c-12 -7 -19 -18 -17 -25 4 -10 8 -10 20 -1 12 10 16 10
23 -2 7 -11 12 -11 22 -1 9 9 9 12 -4 12 -9 0 -18 6 -20 14 -2 12 -7 12 -24 3z"/>
<path d="M2279 2813 c-13 -15 -12 -15 9 -4 23 12 28 21 13 21 -5 0 -15 -7 -22
-17z"/>
<path d="M1052 1828 c2 -5 8 -9 13 -9 5 0 11 4 13 9 1 5 -4 9 -13 9 -9 0 -14
-4 -13 -9z"/>
<path d="M1131 1824 c0 -11 3 -14 6 -6 3 7 2 16 -1 19 -3 4 -6 -2 -5 -13z"/>
<path d="M1331 1794 c13 -16 29 -19 29 -5 0 5 -9 11 -21 14 -16 4 -18 3 -8 -9z"/>
<path d="M1044 1763 c36 -39 56 -47 56 -22 0 6 -5 7 -11 3 -6 -3 -27 9 -47 27
l-37 34 39 -42z"/>
<path d="M1110 1780 c-6 -11 -8 -20 -6 -20 3 0 10 9 16 20 6 11 8 20 6 20 -3
0 -10 -9 -16 -20z"/>
<path d="M3781 1784 c0 -11 3 -14 6 -6 3 7 2 16 -1 19 -3 4 -6 -2 -5 -13z"/>
<path d="M3850 1785 c0 -19 12 -25 27 -14 19 16 16 25 -7 25 -11 0 -20 -5 -20
-11z"/>
<path d="M3946 1773 c-6 -14 -5 -15 5 -6 7 7 10 15 7 18 -3 3 -9 -2 -12 -12z"/>
<path d="M808 1756 c-19 -14 -23 -26 -10 -26 4 0 13 9 20 20 14 23 13 24 -10
6z"/>
<path d="M3535 1750 c4 -6 11 -8 16 -5 14 9 11 15 -7 15 -8 0 -12 -5 -9 -10z"/>
<path d="M1270 1720 c6 -11 16 -20 22 -20 6 0 3 9 -7 20 -10 11 -20 20 -22 20
-2 0 1 -9 7 -20z"/>
<path d="M3673 1722 c-10 -9 -13 -13 -6 -8 7 4 20 6 28 2 8 -3 15 -1 15 4 0
18 -18 19 -37 2z"/>
<path d="M725 1721 c-6 -11 74 -75 83 -66 4 3 -2 11 -13 17 -11 6 -30 22 -42
34 -12 13 -25 19 -28 15z"/>
<path d="M3800 1725 c0 -5 5 -17 10 -25 5 -8 10 -10 10 -5 0 6 -5 17 -10 25
-5 8 -10 11 -10 5z"/>
<path d="M3998 1716 c-10 -7 -18 -17 -18 -21 0 -4 7 -2 15 5 8 6 19 9 24 5 7
-3 8 0 5 9 -3 9 -7 16 -8 16 0 0 -9 -7 -18 -14z"/>
<path d="M4161 1725 c0 -5 6 -19 14 -29 12 -16 18 -17 27 -8 9 9 8 12 -5 12
-9 0 -21 8 -26 18 -6 9 -10 13 -10 7z"/>
<path d="M4377 1700 c3 -11 7 -20 9 -20 2 0 4 9 4 20 0 11 -4 20 -9 20 -5 0
-7 -9 -4 -20z"/>
<path d="M3604 1675 c-10 -8 -14 -15 -8 -15 6 0 17 7 24 15 16 19 9 19 -16 0z"/>
<path d="M3700 1676 c0 -8 6 -16 13 -19 6 -2 8 -8 4 -13 -11 -11 -129 -13
-144 -2 -7 6 -19 6 -29 0 -10 -5 -29 -6 -43 -3 -14 4 -37 5 -51 1 -23 -6 -23
-7 -5 -12 11 -3 33 -6 49 -7 17 0 33 -6 37 -12 4 -7 12 -8 20 -3 19 12 138 11
142 0 2 -6 15 -5 33 2 27 12 124 9 145 -4 5 -3 9 -12 9 -21 0 -14 4 -13 23 5
16 16 26 19 34 11 6 -6 31 -11 57 -12 32 -1 48 -7 51 -17 4 -12 15 -15 38 -12
22 2 39 -2 50 -12 8 -9 25 -16 36 -16 22 0 61 -32 61 -50 0 -5 7 -10 15 -10 9
0 28 -11 42 -24 14 -13 32 -22 39 -19 9 3 14 -2 14 -17 0 -11 5 -18 10 -15 6
3 10 20 10 36 0 26 -3 29 -23 24 -17 -5 -32 2 -55 23 -36 34 -42 57 -13 47 12
-3 21 0 24 9 4 9 15 13 27 11 19 -4 27 5 14 18 -3 3 -30 -3 -59 -14 -44 -16
-57 -18 -79 -8 -14 7 -26 16 -26 21 0 4 -11 8 -25 8 -14 0 -37 11 -50 24 -15
15 -27 20 -33 14 -6 -6 -15 -7 -22 -3 -6 4 -34 8 -61 10 -57 3 -88 22 -51 31
12 4 22 10 22 15 0 13 -9 11 -39 -10 -20 -15 -43 -19 -94 -19 -69 0 -97 13
-97 44 0 8 -4 14 -10 14 -5 0 -10 -6 -10 -14z"/>
<path d="M4040 1645 c0 -8 5 -15 10 -15 6 0 10 7 10 15 0 8 -4 15 -10 15 -5 0
-10 -7 -10 -15z"/>
<path d="M4385 1641 c-3 -5 -1 -12 5 -16 5 -3 10 1 10 9 0 18 -6 21 -15 7z"/>
<path d="M1100 1626 c0 -2 7 -7 16 -10 8 -3 12 -2 9 4 -6 10 -25 14 -25 6z"/>
<path d="M1314 1615 c3 -8 1 -15 -3 -15 -5 0 -11 -7 -15 -15 -7 -19 -1 -19 18
1 18 18 21 44 5 44 -6 0 -9 -7 -5 -15z"/>
<path d="M1407 1585 c-18 -29 -33 -42 -43 -38 -18 7 -18 -11 0 -26 15 -13 19
-9 55 57 31 58 23 62 -12 7z"/>
<path d="M4170 1610 c-13 -8 -13 -10 2 -10 9 0 20 5 23 10 8 13 -5 13 -25 0z"/>
<path d="M1062 1560 c-15 -27 -33 -50 -41 -50 -11 0 -11 -3 -1 -15 18 -22 29
-18 36 13 4 15 15 44 26 65 27 55 12 45 -20 -13z"/>
<path d="M905 1580 c3 -5 10 -10 16 -10 5 0 9 5 9 10 0 6 -7 10 -16 10 -8 0
-12 -4 -9 -10z"/>
<path d="M977 1566 c-5 -12 -13 -16 -23 -12 -14 6 -15 4 -4 -9 12 -14 15 -14
28 -1 8 8 12 20 10 27 -3 9 -7 7 -11 -5z"/>
<path d="M1180 1576 c0 -2 8 -10 18 -17 15 -13 16 -12 3 4 -13 16 -21 21 -21
13z"/>
<path d="M3645 1570 c-3 -6 1 -7 9 -4 18 7 21 14 7 14 -6 0 -13 -4 -16 -10z"/>
<path d="M4355 1570 c-3 -5 -1 -10 4 -10 6 0 11 5 11 10 0 6 -2 10 -4 10 -3 0
-8 -4 -11 -10z"/>
<path d="M4391 1564 c0 -11 3 -14 6 -6 3 7 2 16 -1 19 -3 4 -6 -2 -5 -13z"/>
<path d="M800 1563 c0 -5 21 -23 45 -42 25 -18 45 -37 45 -42 0 -18 -22 -20
-46 -4 -14 9 -27 15 -29 13 -1 -2 -7 -13 -14 -25 -6 -13 -29 -27 -51 -34 -22
-7 -40 -16 -40 -21 0 -13 -38 -9 -43 5 -4 7 -6 6 -6 -4 -1 -9 6 -22 14 -29 13
-11 18 -10 29 5 8 11 19 16 30 12 10 -4 19 -1 23 9 4 10 13 14 28 10 16 -4 25
-1 29 10 4 10 14 14 26 11 10 -3 24 1 31 9 7 8 21 11 34 8 15 -4 26 0 32 9 4
8 19 14 32 13 13 0 26 5 29 13 4 13 -11 12 -68 -4 -9 -3 -38 15 -67 40 -51 45
-63 52 -63 38z"/>
<path d="M1460 1555 c-7 -8 -20 -15 -28 -15 -13 0 -13 -3 -4 -12 9 -9 17 -10
30 -1 10 6 30 9 45 6 34 -7 35 10 2 25 -32 15 -30 15 -45 -3z"/>
<path d="M534 1543 c-3 -10 -10 -28 -15 -40 -5 -13 -5 -23 0 -23 4 0 7 -24 6
-54 -1 -43 1 -53 12 -49 9 4 12 14 9 27 -3 11 -1 38 3 59 6 24 5 37 -1 37 -6
0 -8 12 -4 30 6 32 -1 41 -10 13z"/>
<path d="M1112 1540 c-7 -11 -20 -20 -29 -20 -15 0 -14 -2 3 -14 16 -13 21
-12 36 1 14 13 21 13 32 4 15 -12 36 -7 36 8 0 4 -12 14 -27 22 -16 7 -30 15
-33 16 -3 2 -11 -6 -18 -17z"/>
<path d="M1566 1551 c-3 -5 0 -11 8 -14 15 -6 26 1 26 15 0 11 -27 10 -34 -1z"/>
<path d="M3900 1544 c0 -8 5 -12 10 -9 6 3 10 10 10 16 0 5 -4 9 -10 9 -5 0
-10 -7 -10 -16z"/>
<path d="M1216 1533 c-7 -18 20 -28 38 -13 11 8 20 9 36 0 11 -6 25 -8 30 -5
14 9 1 27 -15 21 -7 -2 -29 -1 -48 4 -27 6 -37 4 -41 -7z"/>
<path d="M3262 1533 c-18 -7 -4 -23 19 -23 12 0 19 5 17 12 -5 14 -18 18 -36
11z"/>
<path d="M3353 1530 c-37 -15 -28 -33 12 -26 22 4 35 3 35 -4 0 -5 9 -10 20
-10 11 0 20 5 20 11 0 5 -4 7 -10 4 -5 -3 -15 3 -22 15 -14 22 -22 23 -55 10z"/>
<path d="M4000 1524 c0 -14 3 -14 15 -4 8 7 15 14 15 16 0 2 -7 4 -15 4 -8 0
-15 -7 -15 -16z"/>
<path d="M4411 1524 c0 -11 3 -14 6 -6 3 7 2 16 -1 19 -3 4 -6 -2 -5 -13z"/>
<path d="M705 1520 c-3 -5 -1 -10 4 -10 6 0 11 5 11 10 0 6 -2 10 -4 10 -3 0
-8 -4 -11 -10z"/>
<path d="M1660 1516 c-9 -12 -17 -13 -36 -4 -13 6 -27 8 -31 4 -9 -9 9 -38 28
-45 12 -3 12 -1 -1 14 -14 17 -13 18 13 11 18 -4 34 -2 43 5 11 9 18 9 29 -1
10 -8 15 -9 15 -2 0 10 -30 32 -43 32 -3 0 -10 -6 -17 -14z"/>
<path d="M3810 1510 c6 -11 13 -20 16 -20 2 0 0 9 -6 20 -6 11 -13 20 -16 20
-2 0 0 -9 6 -20z"/>
<path d="M767 1488 c-10 -17 -16 -33 -13 -35 2 -3 12 9 21 27 21 41 15 48 -8
8z"/>
<path d="M1514 1499 c-3 -6 -17 -8 -31 -5 -33 9 -45 -1 -30 -24 14 -24 32 -27
23 -4 -5 13 -2 15 16 11 12 -4 28 -1 35 5 10 8 18 6 33 -7 11 -10 20 -14 20
-8 0 13 -33 43 -48 43 -6 0 -14 -5 -18 -11z"/>
<path d="M3470 1493 c0 -9 8 -13 23 -11 25 3 21 21 -5 23 -10 1 -18 -5 -18
-12z"/>
<path d="M3950 1495 c-17 -10 -20 -14 -9 -15 9 0 22 7 29 15 15 18 12 18 -20
0z"/>
<path d="M4365 1500 c-4 -6 -3 -16 3 -22 6 -6 12 -6 17 2 4 6 3 16 -3 22 -6 6
-12 6 -17 -2z"/>
<path d="M1305 1490 c-3 -5 0 -20 7 -32 9 -17 13 -19 15 -8 4 17 83 25 83 9 0
-5 4 -9 9 -9 15 0 1 38 -16 44 -9 4 -22 1 -30 -5 -10 -9 -20 -9 -38 -1 -15 7
-27 8 -30 2z"/>
<path d="M3147 1494 c-13 -14 -7 -19 23 -20 19 -1 29 3 27 10 -4 13 -40 20
-50 10z"/>
<path d="M3712 1484 c-30 -21 -28 -38 4 -30 14 4 32 2 39 -4 7 -6 20 -8 28 -4
13 5 11 10 -12 30 -34 28 -31 28 -59 8z"/>
<path d="M4070 1459 c-45 -29 -69 -39 -86 -35 -22 6 -23 5 -12 -19 14 -30 36
-33 46 -5 4 11 37 38 72 60 36 22 60 40 54 40 -6 0 -39 -18 -74 -41z"/>
<path d="M1235 1479 c-4 -6 -19 -7 -35 -4 -35 8 -49 -11 -25 -33 17 -16 17
-16 11 2 -5 16 -3 17 20 12 15 -4 32 -2 40 5 11 9 15 8 20 -5 3 -9 10 -16 15
-16 11 0 -1 33 -15 42 -15 11 -24 10 -31 -3z"/>
<path d="M3220 1480 c-13 -8 -13 -10 2 -10 12 0 15 -5 11 -17 -6 -16 -4 -16
15 1 12 11 22 23 22 28 0 11 -31 10 -50 -2z"/>
<path d="M3545 1480 c3 -5 13 -10 21 -10 8 0 14 5 14 10 0 6 -9 10 -21 10 -11
0 -17 -4 -14 -10z"/>
<path d="M3615 1480 c-8 -12 20 -24 35 -15 6 3 8 11 5 16 -8 12 -32 12 -40 -1z"/>
<path d="M1103 1464 c-4 -11 -13 -13 -33 -9 -36 8 -46 -8 -25 -37 l17 -23 -7
23 c-7 23 1 27 24 13 10 -7 19 -4 27 7 12 16 14 15 28 -3 l15 -20 -4 20 c-2
11 -4 23 -4 26 -2 15 -32 18 -38 3z"/>
<path d="M3289 1458 c-11 -21 -11 -22 4 -10 9 8 25 11 36 7 16 -5 20 -3 15 9
-9 23 -41 19 -55 -6z"/>
<path d="M3370 1460 c-13 -8 -13 -10 2 -10 12 0 15 -5 11 -16 -5 -14 -3 -14
15 2 32 27 8 47 -28 24z"/>
<path d="M3825 1460 c-12 -19 15 -41 36 -29 10 5 19 14 19 20 0 6 -5 7 -10 4
-6 -4 -17 -2 -25 5 -9 8 -15 8 -20 0z"/>
<path d="M4392 1448 c2 -14 11 -24 23 -25 11 -2 14 0 8 3 -7 3 -13 14 -13 25
0 10 -5 19 -11 19 -6 0 -9 -10 -7 -22z"/>
<path d="M3435 1433 l-18 -28 21 19 c16 14 25 16 35 8 7 -6 23 -9 35 -5 16 4
22 1 22 -12 0 -14 3 -15 15 -5 8 7 15 19 15 27 0 12 -8 14 -34 9 -20 -4 -37
-2 -41 4 -11 18 -32 11 -50 -17z"/>
<path d="M4490 1451 c0 -7 -7 -28 -16 -47 -9 -19 -13 -41 -9 -51 5 -13 11 -1
21 41 8 33 12 61 9 64 -3 3 -5 0 -5 -7z"/>
<path d="M481 1424 c-11 -24 -47 -171 -69 -279 -23 -111 -32 -199 -43 -391
-11 -214 -7 -286 32 -589 10 -82 19 -153 19 -157 0 -5 879 -8 1953 -8 l1953 0
34 25 c18 14 36 22 39 19 3 -3 -2 -11 -12 -18 -9 -7 -17 -16 -17 -20 0 -3 51
-6 114 -6 l113 0 12 72 c23 142 37 468 20 468 -5 0 -14 11 -19 24 -5 13 -19
27 -30 31 -22 7 -23 24 -5 80 4 13 -1 28 -14 42 -25 26 -26 33 -6 33 18 0 20
43 3 57 -18 14 -97 44 -128 48 -68 10 -123 24 -133 34 -16 16 -24 14 -30 -8
-5 -19 6 -46 20 -46 4 -1 17 -4 28 -8 11 -3 38 -8 60 -11 22 -2 54 -10 70 -16
17 -6 31 -11 32 -11 17 -1 62 -26 60 -34 -5 -13 -40 -7 -49 8 -4 6 -10 8 -14
5 -4 -4 -16 -2 -28 4 -11 6 -34 13 -51 15 -16 2 -41 7 -55 12 -49 18 -65 22
-68 19 -2 -2 -10 12 -18 30 -13 32 -34 36 -34 6 0 -17 -12 -18 -28 -2 -8 8
-15 8 -27 -2 -12 -10 -15 -10 -15 4 0 21 -17 21 -24 -2 -11 -33 -62 -45 -210
-47 -173 -2 -179 -3 -171 -15 3 -6 -1 -7 -9 -4 -9 3 -16 1 -16 -5 0 -12 8 -14
55 -13 85 2 104 5 98 16 -5 8 -3 8 8 -1 8 -6 45 -13 83 -15 127 -8 80 -23 -70
-22 -80 0 -147 -3 -150 -8 -3 -4 -14 -8 -25 -8 -25 0 -24 -16 2 -30 31 -17 19
-41 -27 -55 -40 -12 -43 -11 -84 21 -59 47 -68 42 -23 -11 34 -41 73 -60 73
-35 0 6 11 8 25 4 16 -4 25 -2 25 6 0 7 8 10 20 7 11 -3 23 -1 26 4 7 12 64
11 64 -1 0 -10 -20 -14 -52 -12 -10 1 -18 -2 -18 -8 0 -5 -20 -12 -45 -16 -50
-7 -52 -9 -31 -30 19 -18 50 -19 43 0 -4 11 -1 11 19 2 28 -13 31 -26 6 -26
-10 0 -23 -5 -29 -11 -7 -7 -18 -3 -36 15 -14 14 -36 26 -47 26 -13 0 -20 5
-18 12 5 13 -14 38 -28 38 -4 0 -28 -10 -52 -22 l-45 -21 -43 23 c-38 22 -46
23 -69 10 -23 -12 -28 -11 -55 8 -31 23 -65 29 -75 12 -10 -15 -43 -12 -64 7
-27 22 -56 26 -71 8 -16 -20 -22 -19 -50 5 -24 21 -70 27 -70 10 0 -17 -36
-11 -55 10 -22 24 -51 26 -63 5 -5 -10 -15 -13 -25 -9 -23 8 -21 21 3 27 14 3
18 10 14 22 -8 21 -50 16 -46 -6 2 -12 -5 -15 -28 -11 -18 3 -30 0 -30 -7 0
-15 -33 -14 -48 1 -20 20 -14 28 18 22 36 -8 42 12 8 25 -17 7 -26 5 -35 -7
-16 -20 -55 -27 -52 -10 3 28 -2 36 -21 31 -24 -6 -27 -41 -4 -39 9 0 19 -5
21 -11 7 -19 -34 -16 -41 2 -3 8 -16 15 -30 15 -16 0 -23 5 -22 18 1 11 -6 17
-19 17 -13 0 -19 -6 -19 -18 2 -13 -3 -16 -18 -11 -12 3 -27 -1 -39 -12 -16
-15 -23 -16 -37 -6 -32 23 -43 24 -61 8 -10 -9 -23 -16 -29 -16 -20 0 -13 22
8 27 25 7 26 19 1 32 -10 6 -21 18 -25 26 -3 9 -2 13 4 10 6 -3 10 1 10 9 0 9
5 16 10 16 6 0 10 7 10 16 0 11 -11 7 -45 -17 -49 -35 -53 -55 -13 -52 21 1
25 -3 26 -23 0 -20 -4 -23 -24 -18 -17 4 -26 1 -30 -10 -6 -17 -44 -23 -44 -7
0 21 -35 22 -52 2 -18 -23 -44 -28 -50 -9 -5 13 -48 19 -48 6 0 -4 -5 -8 -11
-8 -6 0 -8 9 -4 21 6 19 4 21 -22 17 -23 -3 -30 0 -29 11 1 11 -6 15 -21 14
-11 -1 -27 4 -33 12 -15 18 -42 19 -59 3 -10 -11 -12 -9 -9 7 2 15 -3 21 -24
23 -14 2 -32 11 -40 19 -11 14 -11 16 2 11 8 -3 26 -1 39 3 19 8 21 12 11 24
-13 16 -38 9 -60 -16 -21 -24 -62 -36 -54 -16 8 22 -10 28 -34 11 -27 -19 -29
-38 -3 -29 12 4 21 0 25 -12 5 -13 -2 -25 -26 -45 -18 -15 -36 -28 -40 -28 -5
0 -8 -4 -8 -9 0 -17 32 -5 50 18 16 23 18 23 43 7 27 -18 51 -13 76 18 12 14
16 14 44 0 24 -13 35 -14 49 -5 15 9 18 8 18 -9 0 -13 7 -20 19 -20 10 0 24
-7 31 -15 7 -8 19 -14 28 -13 8 2 17 -3 19 -9 6 -15 -33 -18 -42 -3 -10 17
-50 11 -68 -10 -20 -24 -30 -25 -46 -6 -10 11 -19 12 -42 4 -16 -5 -29 -14
-29 -19 0 -12 -43 -12 -56 1 -6 6 -18 4 -34 -5 -46 -26 -50 -27 -67 -19 -10 4
-26 8 -35 9 -10 1 -24 8 -32 14 -19 16 -58 -3 -50 -23 4 -10 0 -13 -13 -10
-10 3 -28 -4 -41 -16 -26 -24 -63 -21 -94 7 -10 9 -26 13 -36 11 -24 -7 -24
19 1 46 33 37 17 37 -28 -1 -25 -20 -45 -41 -45 -45 0 -12 69 -41 84 -35 10 4
13 1 9 -9 -6 -16 -29 -19 -38 -3 -4 6 -13 8 -20 5 -8 -3 -19 2 -25 10 -7 8
-21 14 -31 14 -11 0 -19 5 -19 10 0 6 -9 10 -20 10 -11 0 -20 5 -20 10 0 13
27 13 35 0 8 -13 35 -13 35 0 0 6 -11 15 -24 20 -14 5 -30 18 -36 29 -8 17 -7
22 11 32 21 11 20 11 -11 30 -22 14 -29 23 -22 32 11 15 12 77 0 77 -4 0 -8 9
-8 21 0 16 -4 19 -20 14 -23 -7 -28 13 -5 21 26 10 18 37 -9 32 -29 -6 -25 17
6 33 11 6 17 13 14 16 -3 3 1 15 9 27 19 26 19 34 1 32 -8 0 -15 4 -15 9 0 6
8 9 17 8 9 -1 37 16 62 38 25 21 53 46 63 55 14 11 22 12 31 4 14 -10 40 -5
64 13 10 8 9 14 -4 28 -22 24 -34 24 -34 -1 0 -23 -20 -26 -39 -7 -10 10 -15
8 -26 -6 -11 -15 -17 -17 -34 -7 -18 9 -22 8 -28 -6 -4 -10 -2 -19 5 -22 7 -2
12 -8 12 -13 0 -17 -22 -9 -42 17 -23 29 -38 22 -41 -21 -1 -16 -8 -30 -15
-33 -9 -3 -13 3 -11 14 4 21 -7 44 -22 44 -5 0 -9 -6 -9 -14 0 -22 -19 -29
-36 -15 -16 13 -25 6 -38 -26 -2 -6 -9 -5 -17 3 -23 21 -32 13 -26 -22 7 -42
-2 -54 -17 -24 -15 31 -46 36 -46 9 0 -22 -14 -28 -25 -11 -10 17 -25 11 -25
-9 0 -23 -16 -36 -25 -21 -10 17 -25 11 -25 -9 0 -27 -17 -35 -29 -14 -9 17
-10 17 -17 -1 -4 -10 -2 -27 4 -37 15 -23 15 -29 2 -29 -5 0 -10 6 -10 13 0 8
-9 22 -20 32 -20 18 -20 17 -20 -8 0 -35 -16 -35 -24 -1 -5 20 -10 24 -19 15
-18 -18 -27 -13 -27 15 0 31 -20 28 -36 -5 -7 -13 -15 -18 -18 -13 -3 6 -2 13
4 17 13 8 13 52 1 60 -5 3 -13 0 -18 -7 -5 -9 -9 -3 -13 17 -4 21 -11 29 -23
27 -13 -2 -17 4 -17 27 0 24 -4 29 -16 24 -10 -4 -15 -1 -14 8 1 8 2 23 1 34
-2 19 -2 19 -15 2 -12 -15 -17 -16 -42 -5 l-29 12 33 4 c28 3 32 7 32 33 0 16
-3 29 -7 29 -5 0 -7 36 -6 80 1 44 0 80 -1 80 -2 0 -8 -12 -15 -26z m-1 -134
c0 -5 -2 -10 -4 -10 -3 0 -8 5 -11 10 -3 6 -1 10 4 10 6 0 11 -4 11 -10z m38
-136 c12 -4 22 -10 22 -15 0 -11 -56 -3 -79 11 -13 8 -11 9 9 10 14 0 35 -3
48 -6z m702 -34 c0 -5 -4 -10 -10 -10 -5 0 -10 5 -10 10 0 6 5 10 10 10 6 0
10 -4 10 -10z m-125 -10 c-3 -5 -13 -10 -21 -10 -8 0 -12 5 -9 10 3 6 13 10
21 10 8 0 12 -4 9 -10z m46 -23 c-13 -13 -26 -3 -16 12 3 6 11 8 17 5 6 -4 6
-10 -1 -17z m-594 -2 c37 -2 51 -20 16 -19 -47 1 -123 17 -123 25 0 6 15 7 34
3 19 -3 52 -7 73 -9z m517 -20 c3 -9 0 -15 -9 -15 -16 0 -27 14 -18 24 10 10
21 7 27 -9z m-124 -20 c0 -8 -4 -15 -9 -15 -13 0 -22 16 -14 24 11 11 23 6 23
-9z m170 5 c0 -5 -7 -10 -15 -10 -8 0 -15 5 -15 10 0 6 7 10 15 10 8 0 15 -4
15 -10z m50 -15 c0 -8 -6 -15 -14 -15 -20 0 -29 17 -14 23 22 9 28 7 28 -8z
m-170 -5 c0 -5 -7 -10 -15 -10 -8 0 -15 5 -15 10 0 6 7 10 15 10 8 0 15 -4 15
-10z m-417 -10 c20 0 37 -4 37 -8 0 -11 -125 -5 -165 8 -24 8 -19 9 30 5 33
-2 77 -4 98 -5z m457 -5 c0 -8 -7 -15 -15 -15 -8 0 -15 7 -15 15 0 8 7 15 15
15 8 0 15 -7 15 -15z m-160 -4 c0 -6 -4 -13 -10 -16 -5 -3 -10 1 -10 9 0 9 5
16 10 16 6 0 10 -4 10 -9z m232 -11 c10 0 18 -5 18 -11 0 -7 -12 -8 -32 -4
-44 10 -53 16 -37 26 8 4 18 4 23 -1 6 -6 18 -10 28 -10z m-191 -13 c-13 -13
-26 -3 -16 12 3 6 11 8 17 5 6 -4 6 -10 -1 -17z m-256 -7 c4 -6 15 -8 26 -5
13 5 19 2 19 -10 0 -19 57 -46 79 -37 10 4 13 1 8 -11 -10 -25 65 -97 103
-100 30 -2 38 -11 21 -22 -5 -3 -12 -1 -16 5 -4 6 -11 8 -16 5 -13 -9 -11 -45
4 -51 7 -2 13 -25 14 -51 1 -25 7 -51 13 -57 5 -5 10 -18 10 -28 0 -10 7 -18
15 -18 9 0 20 -12 26 -27 5 -16 17 -34 26 -40 9 -7 14 -16 10 -19 -4 -4 -12
-2 -19 4 -15 12 -88 14 -88 2 0 -4 10 -15 23 -23 l22 -16 -24 -19 c-24 -19
-22 -42 4 -42 28 0 23 -29 -9 -48 l-33 -19 -46 33 c-52 38 -61 34 -21 -9 27
-29 28 -28 -40 -46 -36 -10 -41 -8 -69 19 -16 16 -35 26 -42 24 -7 -3 -16 -1
-20 5 -3 6 1 11 11 11 15 0 15 2 1 22 -11 17 -22 22 -45 20 -16 -2 -33 1 -37
7 -4 7 5 11 22 11 31 0 53 16 53 38 0 9 -11 13 -32 12 -60 -4 -98 0 -98 9 0 4
11 6 24 4 28 -6 41 10 27 34 -7 13 -20 16 -55 14 -28 -1 -46 2 -46 8 0 6 18
11 41 11 40 0 41 1 35 27 -4 14 -3 29 3 32 7 5 7 19 -1 45 -10 30 -9 39 2 46
11 7 11 11 1 23 -7 9 -8 18 -2 21 5 3 7 15 4 26 -4 16 -14 20 -44 20 -21 0
-40 4 -43 9 -3 4 15 7 39 6 49 -2 55 7 28 38 -13 15 -15 21 -5 24 18 7 15 40
-5 53 -16 9 -15 10 7 8 14 -2 33 5 43 15 19 19 82 23 92 7z m305 0 c0 -5 -7
-10 -15 -10 -8 0 -15 5 -15 10 0 6 7 10 15 10 8 0 15 -4 15 -10z m38 -12 c-6
-18 -28 -21 -28 -4 0 9 7 16 16 16 9 0 14 -5 12 -12z m-513 -8 c4 -7 -3 -10
-19 -8 -35 5 -45 18 -13 18 14 0 29 -5 32 -10z m365 -11 c0 -5 -4 -9 -10 -9
-5 0 -10 7 -10 16 0 8 5 12 10 9 6 -3 10 -10 10 -16z m190 6 c0 -8 -4 -15 -9
-15 -13 0 -22 16 -14 24 11 11 23 6 23 -9z m-152 -16 c-2 -6 -8 -10 -13 -10
-5 0 -11 4 -13 10 -2 6 4 11 13 11 9 0 15 -5 13 -11z m202 1 c0 -5 -6 -10 -14
-10 -8 0 -18 5 -21 10 -3 6 3 10 14 10 12 0 21 -4 21 -10z m-162 -11 c-2 -6
-8 -10 -13 -10 -5 0 -11 4 -13 10 -2 6 4 11 13 11 9 0 15 -5 13 -11z m202 1
c0 -5 -7 -10 -15 -10 -8 0 -15 5 -15 10 0 6 7 10 15 10 8 0 15 -4 15 -10z
m-166 -21 c-3 -5 -10 -7 -15 -3 -5 3 -7 10 -3 15 3 5 10 7 15 3 5 -3 7 -10 3
-15z m-464 -19 c0 -5 -8 -7 -17 -5 -10 2 -31 4 -48 5 l-30 2 30 7 c33 8 65 3
65 -9z m330 10 c0 -5 -4 -10 -10 -10 -5 0 -10 5 -10 10 0 6 5 10 10 10 6 0 10
-4 10 -10z m180 0 c0 -5 -4 -10 -9 -10 -6 0 -13 5 -16 10 -3 6 1 10 9 10 9 0
16 -4 16 -10z m-143 -26 c-9 -9 -28 6 -21 18 4 6 10 6 17 -1 6 -6 8 -13 4 -17z
m183 16 c0 -5 -4 -10 -9 -10 -6 0 -13 5 -16 10 -3 6 1 10 9 10 9 0 16 -4 16
-10z m-154 -27 c-10 -10 -19 5 -10 18 6 11 8 11 12 0 2 -7 1 -15 -2 -18z m199
17 c-3 -5 -10 -10 -16 -10 -5 0 -9 5 -9 10 0 6 7 10 16 10 8 0 12 -4 9 -10z
m45 -10 c0 -5 -7 -10 -15 -10 -8 0 -15 5 -15 10 0 6 7 10 15 10 8 0 15 -4 15
-10z m-200 -10 c0 -5 -4 -10 -10 -10 -5 0 -10 5 -10 10 0 6 5 10 10 10 6 0 10
-4 10 -10z m89 -12 c17 -1 31 -5 31 -11 0 -5 9 -7 20 -4 11 3 23 1 26 -4 3 -5
14 -9 25 -9 10 0 19 -4 19 -10 0 -5 -2 -10 -4 -10 -2 0 -11 -3 -20 -6 -10 -4
-16 -1 -16 10 0 9 -6 13 -13 10 -8 -3 -27 1 -43 7 -16 7 -34 11 -41 10 -6 -1
-14 3 -18 8 -3 6 -12 8 -20 4 -8 -3 -15 -1 -15 4 0 17 13 23 26 12 7 -6 26
-11 43 -11z m161 13 c0 -14 -18 -23 -30 -16 -6 4 -8 11 -5 16 8 12 35 12 35 0z
m636 -56 c-3 -8 -1 -15 5 -15 6 0 8 -4 5 -9 -3 -4 -17 -6 -32 -3 -15 3 -29 -1
-34 -8 -5 -8 -8 -4 -7 13 1 14 5 23 9 20 5 -2 16 1 25 6 26 15 36 13 29 -4z
m2387 9 c4 -4 21 -8 39 -9 20 -2 41 -13 54 -28 13 -15 36 -28 55 -30 19 -3 35
-6 37 -7 1 -2 7 -4 12 -5 6 -1 11 -3 13 -4 1 -2 13 -5 27 -7 14 -3 27 -9 28
-14 2 -6 10 -10 18 -10 8 0 14 -5 14 -11 0 -5 5 -7 10 -4 11 7 46 -22 37 -31
-2 -3 -26 7 -53 21 -26 14 -65 28 -86 31 -21 4 -41 11 -44 15 -3 5 -14 9 -25
9 -13 0 -19 -7 -19 -23 0 -20 10 -26 69 -45 125 -41 203 -100 200 -152 0 -13
-1 -13 -6 0 -6 17 -83 90 -95 90 -5 0 -24 7 -44 15 -19 8 -38 15 -42 15 -4 1
-11 5 -17 9 -23 18 -63 21 -69 5 -9 -22 -7 -34 3 -34 5 0 22 -5 38 -12 15 -6
34 -10 41 -9 6 1 12 -2 12 -7 0 -5 18 -14 39 -21 37 -11 111 -72 111 -92 0 -5
-21 7 -46 26 -25 19 -52 35 -59 35 -7 0 -15 3 -17 8 -4 9 -108 52 -126 52 -9
0 -12 -10 -11 -28 2 -15 -1 -33 -6 -41 -5 -10 -4 -16 3 -19 7 -2 12 -13 12
-24 0 -12 3 -18 7 -15 6 7 126 -52 131 -65 2 -5 10 -8 18 -8 14 0 19 -12 8
-22 -5 -6 -64 20 -74 33 -3 4 -25 16 -49 29 -35 18 -45 19 -52 8 -14 -21 -6
-43 17 -44 12 -1 36 -12 55 -25 19 -13 36 -25 38 -26 1 -1 0 -7 -4 -13 -5 -8
-12 -7 -23 3 -26 23 -82 49 -82 38 0 -5 -3 -16 -6 -25 -4 -10 5 -19 30 -30 20
-8 36 -20 36 -26 0 -6 -18 -1 -41 10 l-40 21 -18 -23 c-17 -20 -22 -21 -46
-10 -35 16 -42 9 -26 -25 11 -25 10 -29 -13 -46 -14 -10 -26 -25 -26 -33 0 -8
-6 -11 -15 -8 -8 4 -27 -2 -42 -11 -26 -17 -26 -17 -59 18 -40 42 -41 50 -11
70 30 20 18 29 -21 15 -20 -8 -35 -9 -41 -3 -5 6 -11 43 -13 82 -4 54 -2 76 8
84 23 19 17 41 -8 34 -18 -6 -14 2 20 35 23 24 43 51 44 62 1 10 3 30 4 46 2
15 6 37 10 50 6 20 3 22 -37 22 -71 0 -119 11 -119 27 0 8 5 11 12 7 6 -4 40
-9 75 -12 57 -4 67 -1 98 22 18 14 38 26 44 26 6 0 11 5 11 10 0 13 -17 13
-25 0 -3 -5 -13 -6 -21 -3 -15 5 -15 7 0 15 9 5 35 11 59 14 23 3 46 11 52 19
11 16 18 18 28 9z m-3253 -14 c0 -5 -4 -10 -10 -10 -5 0 -10 5 -10 10 0 6 5
10 10 10 6 0 10 -4 10 -10z m230 1 c0 -12 -20 -25 -27 -18 -7 7 6 27 18 27 5
0 9 -4 9 -9z m-190 -5 c0 -11 -19 -15 -25 -6 -3 5 1 10 9 10 9 0 16 -2 16 -4z
m26 -23 c-10 -10 -19 5 -10 18 6 11 8 11 12 0 2 -7 1 -15 -2 -18z m35 -6 c-16
-16 -26 0 -10 19 9 11 15 12 17 4 2 -6 -1 -17 -7 -23z m-541 -5 c0 -4 -25 -8
-55 -9 -32 -1 -53 2 -50 8 7 11 105 12 105 1z m585 -2 c-3 -5 -10 -10 -16 -10
-5 0 -9 5 -9 10 0 6 7 10 16 10 8 0 12 -4 9 -10z m45 -10 c0 -5 -7 -10 -16
-10 -8 0 -12 5 -9 10 3 6 10 10 16 10 5 0 9 -4 9 -10z m-170 -4 c0 -3 -4 -8
-10 -11 -5 -3 -10 -1 -10 4 0 6 5 11 10 11 6 0 10 -2 10 -4z m215 -17 c-8 -12
-35 -12 -35 0 0 11 22 20 33 14 4 -2 5 -9 2 -14z m-115 -13 c0 -3 -4 -8 -10
-11 -5 -3 -10 -1 -10 4 0 6 5 11 10 11 6 0 10 -2 10 -4z m2790 -17 c0 -5 -9
-9 -20 -9 -14 0 -18 -5 -14 -17 5 -17 4 -17 -9 0 -9 10 -25 17 -38 15 -13 -2
-25 1 -27 6 -1 6 13 10 32 11 19 0 38 3 41 7 9 9 35 -1 35 -13z m-3400 0 c0
-6 -6 -9 -14 -6 -7 3 -19 0 -25 -6 -8 -8 -11 -8 -11 0 0 12 16 21 38 22 6 1
12 -4 12 -10z m50 1 c0 -5 -6 -10 -14 -10 -8 0 -18 5 -21 10 -3 6 3 10 14 10
12 0 21 -4 21 -10z m600 0 c0 -5 -4 -10 -9 -10 -6 0 -13 5 -16 10 -3 6 1 10 9
10 9 0 16 -4 16 -10z m29 -21 c-9 -5 -15 -4 -18 2 -2 6 3 15 10 20 9 5 15 4
18 -2 2 -6 -3 -15 -10 -20z m-219 11 c0 -5 -4 -10 -10 -10 -5 0 -10 5 -10 10
0 6 5 10 10 10 6 0 10 -4 10 -10z m270 -19 c0 -5 -7 -11 -15 -15 -9 -3 -15 0
-15 9 0 8 7 15 15 15 8 0 15 -4 15 -9z m2690 -21 c0 -5 -4 -10 -9 -10 -5 0
-16 -3 -25 -6 -9 -3 -16 -1 -16 4 0 9 16 17 43 21 4 0 7 -3 7 -9z m-2770 -10
c0 -5 -4 -10 -10 -10 -5 0 -10 5 -10 10 0 6 5 10 10 10 6 0 10 -4 10 -10z
m-600 -7 c0 -5 -20 -8 -45 -8 -25 0 -45 3 -45 8 0 4 20 7 45 7 25 0 45 -3 45
-7z m681 -27 c4 -5 16 -6 28 -3 21 5 31 -16 12 -27 -7 -5 -59 17 -100 41 -1 1
0 6 3 12 7 11 44 -4 57 -23z m2759 24 c0 -5 -2 -10 -4 -10 -3 0 -8 5 -11 10
-3 6 -1 10 4 10 6 0 11 -4 11 -10z m50 -2 c0 -4 -7 -8 -15 -8 -8 0 -15 4 -15
8 0 5 7 9 15 9 8 0 15 -4 15 -9z m-2910 -28 c0 -5 -5 -10 -11 -10 -5 0 -7 5
-4 10 3 6 8 10 11 10 2 0 4 -4 4 -10z m2755 0 c8 -13 -62 -43 -81 -36 -22 9
-17 28 6 21 11 -3 20 -2 20 4 0 8 15 15 42 20 4 0 10 -4 13 -9z m49 -2 c-7
-11 -34 -10 -34 1 0 6 9 9 19 8 11 0 17 -5 15 -9z m-2769 -18 c3 -5 2 -10 -4
-10 -5 0 -13 5 -16 10 -3 6 -2 10 4 10 5 0 13 -4 16 -10z m60 -23 c11 4 13 1
9 -10 -5 -13 -10 -14 -27 -4 -12 7 -24 13 -26 14 -1 1 0 7 4 14 6 8 10 7 17
-4 5 -9 15 -14 23 -10z m95 14 c0 -11 -26 -22 -34 -14 -12 12 -5 23 14 23 11
0 20 -4 20 -9z m2597 -27 c6 -19 -36 -24 -46 -5 -8 14 -5 17 16 16 15 0 28 -5
30 -11z m-52 -13 c3 -6 -3 -15 -14 -20 -25 -14 -41 -14 -41 -1 0 6 7 10 15 10
8 0 15 5 15 10 0 13 17 13 25 1z m540 -11 c22 -11 45 -20 52 -20 7 0 13 -4 13
-9 0 -7 22 -17 45 -20 8 -1 55 -49 55 -56 0 -11 -18 -4 -40 15 -13 11 -27 20
-32 20 -6 0 -22 9 -36 19 -15 10 -31 20 -37 21 -36 10 -75 32 -70 40 8 13 4
13 50 -10z m-485 -30 c0 -13 -28 -25 -38 -16 -3 4 0 11 8 16 20 13 30 12 30 0z
m-1690 -54 c0 -23 -64 -35 -104 -20 -32 12 -15 24 29 20 24 -3 47 0 50 5 9 14
25 11 25 -5z m50 -1 c0 -16 -27 -32 -37 -21 -7 7 16 36 28 36 5 0 9 -7 9 -15z
m68 -8 c5 -24 -15 -21 -28 4 -10 18 -9 20 7 17 10 -2 19 -11 21 -21z m132 13
c0 -3 -5 -11 -12 -18 -18 -18 -63 -15 -89 7 l-23 18 62 0 c34 -1 62 -4 62 -7z
m50 -5 c0 -16 -27 -32 -37 -22 -3 4 -3 13 0 22 8 20 37 20 37 0z m68 3 c16
-16 15 -28 -2 -28 -17 0 -38 24 -29 33 9 10 17 9 31 -5z m47 3 c3 -5 25 -7 50
-5 48 6 60 -7 24 -27 -36 -19 -126 11 -102 34 9 10 21 9 28 -2z m-548 -16 c3
-9 3 -18 1 -21 -9 -9 -38 8 -38 22 0 19 29 18 37 -1z m686 -16 c-6 -6 -19 -9
-29 -7 -17 3 -17 4 1 21 12 13 21 15 28 8 8 -8 8 -14 0 -22z m-803 6 c0 -27
-109 -35 -117 -8 -3 9 7 12 35 9 22 -2 46 1 54 5 19 13 28 11 28 -6z m50 6 c0
-12 -29 -35 -36 -28 -11 10 5 37 21 37 8 0 15 -4 15 -9z m827 -6 c3 -9 3 -19
-1 -22 -7 -7 -36 16 -36 28 0 15 30 10 37 -6z m70 -4 c4 1 23 1 42 0 29 -1 32
-3 21 -16 -16 -20 -70 -19 -98 1 -27 18 -20 39 8 24 11 -6 23 -10 27 -9z
m-1079 -19 c3 -9 -2 -13 -14 -10 -9 1 -19 9 -22 16 -3 9 2 13 14 10 9 -1 19
-9 22 -16z m1199 1 c5 -13 -25 -26 -38 -17 -6 3 -5 11 2 20 13 16 31 14 36 -3z
m-1267 -2 c0 -12 -29 -35 -36 -28 -11 10 5 37 21 37 8 0 15 -4 15 -9z m1334
-7 c4 -9 4 -19 2 -22 -10 -9 -36 8 -36 23 0 20 26 19 34 -1z m-1384 -2 c0 -16
-47 -34 -81 -30 -46 4 -43 21 5 25 21 1 41 4 44 8 8 8 32 6 32 -3z m1444 0 c3
-5 26 -7 51 -6 32 2 48 -1 51 -11 5 -11 10 -12 25 -2 14 8 21 9 30 0 15 -15
-27 -39 -44 -25 -7 5 -35 9 -63 9 -51 1 -94 16 -94 33 0 12 37 13 44 2z
m-2194 -22 c0 -5 -4 -10 -10 -10 -5 0 -10 5 -10 10 0 6 5 10 10 10 6 0 10 -4
10 -10z m615 -1 c10 -15 -1 -23 -20 -15 -9 3 -13 10 -10 16 8 13 22 13 30 -1z
m-68 -24 c-4 -8 -11 -15 -17 -15 -14 0 -13 27 3 33 16 6 21 1 14 -18z m1881
13 c17 -17 15 -28 -7 -28 -19 0 -35 23 -24 34 9 9 18 7 31 -6z m-2458 -5 c0
-10 -49 -33 -68 -33 -7 0 -10 5 -7 10 3 6 15 10 26 10 10 0 19 5 19 10 0 6 7
10 15 10 8 0 15 -3 15 -7z m526 -21 c-10 -10 -33 -17 -56 -17 -22 0 -40 -3
-40 -7 0 -5 -7 -8 -15 -8 -8 0 -15 3 -15 8 0 12 50 31 66 25 8 -3 14 0 14 6 0
6 6 8 14 5 8 -3 17 0 21 5 3 6 11 8 17 5 6 -4 4 -12 -6 -22z m1989 17 c4 -6
13 -8 21 -5 7 3 16 1 19 -4 4 -6 17 -7 31 -4 18 5 24 2 24 -10 0 -12 -10 -16
-40 -16 -39 0 -90 23 -90 41 0 13 27 11 35 -2z m-2481 -44 c-10 -8 -26 -14
-34 -14 -9 0 -6 4 6 9 12 5 25 14 29 20 4 6 10 9 13 6 3 -4 -3 -13 -14 -21z
m2626 10 c0 -8 -9 -15 -20 -15 -20 0 -26 11 -13 23 12 13 33 7 33 -8z m-1362
-7 c10 -10 15 -10 21 1 6 8 11 9 15 3 10 -17 -7 -22 -70 -21 -33 1 -80 -2
-106 -6 -32 -5 -48 -4 -48 3 0 16 18 24 25 12 5 -7 11 -8 19 -1 6 5 36 11 66
14 30 2 57 4 61 5 3 1 11 -4 17 -10z m112 -3 c0 -8 -7 -15 -15 -15 -9 0 -12 6
-9 15 4 8 10 15 15 15 5 0 9 -7 9 -15z m204 -5 c6 -6 -32 -9 -92 -9 -56 0
-102 4 -102 9 0 4 5 10 11 12 21 7 174 -3 183 -12z m-1238 1 c-8 -12 -46 -21
-46 -11 0 5 8 11 18 13 29 8 33 7 28 -2z m1314 -1 c0 -5 -7 -10 -15 -10 -8 0
-15 5 -15 10 0 6 7 10 15 10 8 0 15 -4 15 -10z m136 1 c12 -1 24 -7 27 -14 4
-11 -4 -12 -36 -7 -23 3 -59 5 -79 4 -21 -1 -38 2 -38 6 0 16 17 21 60 16 25
-2 55 -5 66 -5z m893 -17 c3 -16 1 -17 -13 -5 -19 16 -21 34 -3 29 6 -3 14
-13 16 -24z m-1692 -1 c2 -6 -28 -13 -76 -17 -44 -3 -88 -9 -97 -13 -11 -4
-15 -2 -12 7 2 7 20 15 38 17 19 2 55 7 80 12 51 10 62 9 67 -6z m38 7 c3 -5
-1 -10 -9 -10 -9 0 -16 5 -16 10 0 6 4 10 9 10 6 0 13 -4 16 -10z m825 -5 c0
-8 -4 -15 -10 -15 -5 0 -10 7 -10 15 0 8 5 15 10 15 6 0 10 -7 10 -15z m907
-2 c61 -19 71 -37 16 -28 -44 7 -83 25 -83 37 0 11 6 10 67 -9z m-3187 -15 c0
-6 -6 -5 -15 2 -8 7 -15 14 -15 16 0 2 7 1 15 -2 8 -4 15 -11 15 -16z m2352 7
c0 -5 -5 -11 -11 -13 -6 -2 -11 4 -11 13 0 9 5 15 11 13 6 -2 11 -8 11 -13z
m1423 -5 c27 -18 28 -20 8 -20 -12 0 -25 5 -28 10 -4 6 -11 8 -16 5 -5 -4 -9
1 -9 9 0 21 9 20 45 -4z m-1277 -1 c14 0 22 -5 22 -15 0 -10 -6 -14 -17 -10
-10 3 -44 8 -75 12 -32 3 -58 10 -58 15 0 6 23 7 53 3 28 -4 62 -6 75 -5z
m-1318 -21 c0 -9 -2 -10 -45 -13 -34 -3 -76 -11 -105 -20 -14 -4 -20 -2 -20 8
0 9 19 17 58 23 73 12 112 13 112 2z m1380 -3 c0 -8 -7 -15 -15 -15 -8 0 -15
7 -15 15 0 8 7 15 15 15 8 0 15 -7 15 -15z m710 5 c0 -5 -2 -10 -4 -10 -3 0
-8 5 -11 10 -3 6 -1 10 4 10 6 0 11 -4 11 -10z m-3228 -20 c12 -11 17 -20 11
-20 -5 0 -18 9 -28 20 -10 11 -15 20 -11 20 4 0 16 -9 28 -20z m2600 5 c0 -5
-5 -11 -11 -13 -6 -2 -11 4 -11 13 0 9 5 15 11 13 6 -2 11 -8 11 -13z m678 11
c0 -9 -30 -14 -35 -6 -4 6 3 10 14 10 12 0 21 -2 21 -4z m-553 -22 c29 -3 58
-13 64 -21 10 -11 14 -11 20 -1 6 10 11 10 20 1 19 -19 -13 -27 -53 -14 -18 5
-61 13 -95 17 -35 4 -63 10 -63 14 0 14 15 21 35 16 11 -3 44 -8 72 -12z m941
5 c-2 -6 -8 -10 -13 -10 -5 0 -11 4 -13 10 -2 6 4 11 13 11 9 0 15 -5 13 -11z
m-2718 -9 c0 -5 -4 -10 -10 -10 -5 0 -10 5 -10 10 0 6 5 10 10 10 6 0 10 -4
10 -10z m2750 -4 c0 -3 -4 -8 -10 -11 -5 -3 -10 -1 -10 4 0 6 5 11 10 11 6 0
10 -2 10 -4z m-2850 -15 c0 -13 -56 -28 -105 -29 -43 -1 -35 4 35 24 57 15 70
16 70 5z m40 5 c0 -11 -19 -15 -25 -6 -3 5 1 10 9 10 9 0 16 -2 16 -4z m3125
-15 c-3 -6 -11 -11 -17 -11 -6 0 -6 6 2 15 14 17 26 13 15 -4z m-4071 -7 c3
-8 2 -12 -4 -9 -6 3 -10 10 -10 16 0 14 7 11 14 -7z m106 6 c0 -5 -4 -10 -10
-10 -5 0 -10 5 -10 10 0 6 5 10 10 10 6 0 10 -4 10 -10z m2870 -10 c0 -5 -7
-10 -15 -10 -8 0 -15 5 -15 10 0 6 7 10 15 10 8 0 15 -4 15 -10z m102 -10 c59
-12 92 -33 41 -26 -118 16 -133 19 -133 33 0 9 7 12 18 9 9 -2 43 -10 74 -16z
m-2337 0 c4 -6 -5 -10 -19 -10 -14 0 -26 5 -26 10 0 6 9 10 19 10 11 0 23 -4
26 -10z m3292 -12 c-3 -8 -6 -5 -6 6 -1 11 2 17 5 13 3 -3 4 -12 1 -19z
m-2342 2 c-3 -5 -12 -10 -18 -10 -7 0 -6 4 3 10 19 12 23 12 15 0z m155 6 c0
-3 -4 -8 -10 -11 -5 -3 -10 -1 -10 4 0 6 5 11 10 11 6 0 10 -2 10 -4z m220
-11 c0 -12 -19 -12 -23 0 -4 9 -1 12 9 8 7 -3 14 -7 14 -8z m-1915 -5 c3 -5 1
-10 -4 -10 -6 0 -11 5 -11 10 0 6 2 10 4 10 3 0 8 -4 11 -10z m1395 6 c0 -11
-19 -15 -25 -6 -3 5 1 10 9 10 9 0 16 -2 16 -4z m70 0 c0 -11 -19 -15 -25 -6
-3 5 1 10 9 10 9 0 16 -2 16 -4z m517 -2 c-3 -3 -12 -4 -19 -1 -8 3 -5 6 6 6
11 1 17 -2 13 -5z m67 -10 c3 -8 2 -12 -4 -9 -6 3 -10 10 -10 16 0 14 7 11 14
-7z m1803 -6 c-2 -8 -22 -22 -43 -33 -22 -11 -42 -24 -46 -30 -4 -5 -10 -6
-14 -3 -9 9 13 29 59 52 20 11 37 24 37 29 0 6 3 8 6 4 4 -3 4 -12 1 -19z
m-2537 0 c0 -4 -4 -8 -9 -8 -6 0 -12 4 -15 8 -3 5 1 9 9 9 8 0 15 -4 15 -9z
m805 2 c3 -5 1 -10 -4 -10 -6 0 -11 5 -11 10 0 6 2 10 4 10 3 0 8 -4 11 -10z
m925 0 c0 -5 -5 -10 -11 -10 -5 0 -7 5 -4 10 3 6 8 10 11 10 2 0 4 -4 4 -10z
m-3010 -9 c0 -6 20 -13 45 -17 50 -7 61 -24 16 -24 -28 0 -101 49 -73 50 6 0
12 -4 12 -9z m3104 0 c11 -4 15 -10 10 -14 -14 -8 -94 4 -94 14 0 11 57 11 84
0z m91 -1 c7 -12 -40 -24 -56 -14 -9 5 -7 10 7 15 27 11 42 11 49 -1z m-3057
-42 c-6 -18 -28 -21 -28 -4 0 9 7 16 16 16 9 0 14 -5 12 -12z m77 -8 c3 -5 -1
-10 -9 -10 -9 0 -16 5 -16 10 0 6 4 10 9 10 6 0 13 -4 16 -10z m-239 -42 l19
-21 -27 18 c-29 18 -34 25 -20 25 5 0 17 -10 28 -22z m3894 12 c0 -5 -5 -10
-11 -10 -5 0 -7 5 -4 10 3 6 8 10 11 10 2 0 4 -4 4 -10z"/>
<path d="M584 608 c8 -41 34 -70 60 -66 32 5 29 23 -11 62 -46 44 -57 45 -49
4z"/>
<path d="M734 519 c-16 -27 69 -97 103 -85 17 7 17 41 1 53 -25 19 -98 41
-104 32z"/>
<path d="M685 479 c-4 -5 1 -17 11 -24 27 -20 36 -18 24 4 -13 26 -27 34 -35
20z"/>
<path d="M4218 404 c-53 -34 -47 -64 11 -64 19 0 41 38 41 70 0 25 -6 24 -52
-6z"/>
<path d="M4000 355 c0 -23 6 -38 16 -42 24 -9 84 23 84 46 0 22 -19 31 -66 31
-32 0 -34 -2 -34 -35z"/>
<path d="M4105 300 c-18 -20 -17 -20 13 -20 25 0 32 4 32 20 0 11 -6 20 -13
20 -8 0 -22 -9 -32 -20z"/>
<path d="M974 1435 c-5 -11 -14 -15 -29 -11 -29 7 -53 -18 -36 -37 6 -8 8 -17
4 -20 -3 -4 -1 -7 5 -7 7 0 12 9 12 21 0 16 4 19 16 15 10 -4 25 1 35 10 15
14 19 14 19 3 0 -8 12 -19 26 -26 23 -10 24 -10 13 4 -7 8 -18 24 -24 36 -13
27 -33 33 -41 12z"/>
<path d="M3593 1428 c-23 -30 -26 -42 -5 -24 17 15 25 16 36 7 9 -7 24 -10 37
-6 18 6 20 4 14 -14 -3 -12 -2 -21 3 -21 11 0 26 50 17 58 -3 4 -15 0 -26 -7
-18 -10 -24 -10 -38 3 -21 19 -26 20 -38 4z"/>
<path d="M3902 1423 c4 -21 19 -26 38 -13 13 9 13 11 0 20 -23 15 -42 12 -38
-7z"/>
<path d="M1838 1405 c3 -19 11 -25 29 -25 l25 0 -23 25 c-30 31 -37 31 -31 0z"/>
<path d="M1784 1403 c7 -21 6 -22 -25 -11 -25 9 -34 8 -37 0 -5 -15 -32 -16
-32 -2 0 6 -5 10 -11 10 -5 0 -7 -5 -4 -10 3 -6 -1 -13 -11 -17 -10 -4 -20 0
-26 10 -13 24 -27 21 -21 -3 3 -11 14 -25 25 -31 13 -7 18 -7 14 -1 -9 16 30
25 53 13 26 -15 31 -14 31 5 0 16 11 16 53 -1 23 -10 24 27 1 46 -15 12 -16
11 -10 -8z"/>
<path d="M3735 1406 c-20 -15 -20 -15 2 -16 12 0 25 -5 28 -10 3 -6 17 -7 31
-4 20 5 24 2 24 -15 0 -28 16 -27 23 1 9 31 -1 41 -36 34 -21 -4 -33 -1 -41 9
-10 14 -13 14 -31 1z"/>
<path d="M4107 1413 c-4 -6 -21 -14 -37 -18 -26 -6 -28 -9 -20 -26 8 -14 17
-18 34 -13 19 4 26 1 31 -15 7 -22 39 -29 50 -11 3 6 1 10 -5 10 -6 0 -19 19
-29 42 -10 24 -20 37 -24 31z"/>
<path d="M854 1395 c-5 -12 -14 -15 -31 -10 -29 7 -41 -16 -25 -48 l11 -22 0
23 c1 15 6 22 14 19 6 -2 20 2 29 11 16 13 18 13 24 -2 3 -9 10 -16 16 -16 5
0 6 6 1 13 -4 6 -8 18 -8 26 0 21 -24 25 -31 6z"/>
<path d="M2915 1390 c-8 -13 5 -13 25 0 13 8 13 10 -2 10 -9 0 -20 -4 -23 -10z"/>
<path d="M2978 1386 c-10 -7 -18 -16 -18 -19 0 -13 35 2 38 16 4 20 2 20 -20
3z"/>
<path d="M4360 1374 c-13 -32 -13 -51 0 -59 6 -4 10 7 10 24 0 17 5 31 10 31
6 0 10 7 10 15 0 24 -20 17 -30 -11z"/>
<path d="M1509 1376 c19 -22 -7 -31 -30 -10 -15 14 -19 14 -19 3 0 -12 47 -49
63 -49 3 0 7 10 10 22 6 22 -7 48 -25 48 -6 0 -6 -6 1 -14z"/>
<path d="M3040 1377 c-33 -27 -16 -50 20 -27 12 7 12 10 1 10 -7 0 -11 6 -7
15 6 18 5 18 -14 2z"/>
<path d="M4307 1363 c-9 -17 -22 -33 -29 -36 -20 -7 -2 -20 19 -13 25 8 41 37
33 61 -6 18 -8 17 -23 -12z"/>
<path d="M553 1373 c-7 -2 -13 -16 -13 -29 0 -14 4 -22 10 -19 6 4 10 -7 10
-24 0 -17 4 -31 10 -31 5 0 12 -11 16 -25 3 -14 10 -25 14 -25 4 0 11 -11 14
-25 4 -16 11 -22 21 -19 10 4 15 0 15 -13 0 -28 10 -34 27 -18 19 19 8 56 -14
48 -13 -5 -15 -2 -10 16 4 17 2 21 -8 17 -8 -3 -17 -1 -20 4 -4 6 -2 10 3 10
6 0 12 6 15 14 4 10 0 12 -15 8 -23 -6 -38 12 -38 49 0 14 -5 30 -12 37 -9 9
-9 12 0 12 7 0 12 5 12 10 0 10 -16 12 -37 3z"/>
<path d="M1556 1365 c-3 -9 3 -19 16 -26 12 -7 18 -7 14 -1 -3 6 0 13 6 15 10
4 9 8 -2 16 -20 14 -27 14 -34 -4z"/>
<path d="M3879 1378 c-1 -2 -3 -16 -5 -33 -3 -29 -2 -29 10 -7 l12 23 18 -20
c14 -15 26 -19 44 -14 21 5 23 3 18 -15 -4 -11 -2 -23 3 -26 13 -8 25 54 13
66 -6 6 -17 6 -32 -2 -19 -10 -24 -9 -37 9 -11 17 -39 29 -44 19z"/>
<path d="M1310 1353 c0 -25 -7 -28 -29 -14 -10 7 -19 4 -28 -7 -12 -16 -14
-16 -24 1 -12 21 -31 23 -23 2 4 -9 0 -15 -10 -15 -9 0 -16 5 -16 10 0 6 -4
10 -10 10 -5 0 -7 -7 -3 -16 5 -14 2 -16 -20 -10 -16 4 -27 2 -27 -4 0 -5 -7
-10 -15 -10 -8 0 -15 5 -15 10 0 19 -18 10 -24 -12 -6 -23 -7 -23 -21 -4 -15
19 -15 19 -15 -2 0 -23 -14 -29 -26 -11 -5 8 -10 6 -16 -5 -10 -18 -2 -39 13
-31 5 3 6 -1 3 -9 -3 -9 -1 -16 4 -16 6 0 14 9 17 20 7 22 25 26 42 9 8 -8 13
-5 18 10 7 22 20 27 30 11 10 -16 22 -11 28 12 6 20 7 20 31 4 25 -16 26 -16
26 4 0 24 17 26 42 3 17 -16 24 -9 19 20 -2 12 24 8 38 -5 10 -11 15 -9 26 5
12 17 15 17 38 2 23 -15 25 -15 30 5 6 24 20 26 41 5 19 -19 25 -19 22 1 -1 9
-11 23 -21 30 -15 11 -20 11 -30 -2 -10 -14 -12 -14 -24 0 -17 20 -32 21 -25
1 9 -21 -23 -19 -35 3 -9 15 -10 15 -11 -5z"/>
<path d="M3090 1355 c6 -8 8 -19 4 -26 -4 -6 -3 -10 2 -7 43 20 64 33 64 40 0
4 -10 3 -21 -4 -17 -10 -23 -10 -26 0 -3 6 -12 12 -20 12 -12 0 -13 -3 -3 -15z"/>
<path d="M3207 1355 c-4 -8 -13 -15 -22 -15 -8 0 -15 -8 -14 -17 0 -11 3 -13
6 -5 2 6 9 10 13 7 10 -6 35 33 27 41 -2 3 -7 -2 -10 -11z"/>
<path d="M3244 1342 c-6 -4 -8 -15 -5 -25 6 -15 9 -16 25 -4 27 20 8 48 -20
29z"/>
<path d="M3310 1320 l0 -30 35 17 c19 9 35 23 35 31 0 10 -3 10 -16 -3 -17
-17 -41 -15 -36 4 1 6 -2 11 -8 11 -5 0 -10 -13 -10 -30z"/>
<path d="M2045 1322 c-8 -21 19 -42 45 -35 29 8 24 30 -9 41 -24 9 -31 7 -36
-6z"/>
<path d="M4450 1324 c0 -10 -6 -14 -14 -11 -10 4 -13 1 -9 -9 9 -24 33 -16 33
11 0 14 -2 25 -5 25 -3 0 -5 -7 -5 -16z"/>
<path d="M3403 1317 c-24 -11 -29 -22 -14 -31 5 -3 19 2 32 12 26 22 14 34
-18 19z"/>
<path d="M3465 1310 c-14 -16 -16 -23 -7 -32 17 -17 42 11 33 35 -6 17 -8 17
-26 -3z"/>
<path d="M4031 1321 c-8 -5 -10 -14 -6 -21 4 -7 2 -16 -6 -21 -7 -4 -10 -11
-6 -16 5 -4 17 3 26 16 l19 24 7 -22 c5 -16 13 -21 26 -18 15 4 19 0 19 -24 0
-16 5 -29 11 -29 5 0 7 5 4 10 -4 6 -2 17 5 25 8 10 8 19 0 34 -12 24 -21 26
-38 9 -8 -8 -14 -5 -23 15 -13 29 -17 31 -38 18z"/>
<path d="M4180 1311 c0 -24 13 -33 34 -25 20 8 21 24 1 24 -8 0 -15 5 -15 10
0 6 -4 10 -10 10 -5 0 -10 -9 -10 -19z"/>
<path d="M3525 1300 c-3 -11 -2 -27 3 -35 8 -15 10 -15 21 -1 18 22 38 20 46
-4 6 -18 8 -18 21 -5 9 8 20 15 25 15 5 0 9 8 9 18 -1 15 -2 15 -15 -2 -14
-19 -16 -19 -34 -2 -16 15 -23 16 -42 6 -20 -11 -21 -10 -16 9 7 27 -9 28 -18
1z"/>
<path d="M4322 1303 c-12 -20 4 -40 32 -40 17 0 18 1 1 13 -9 7 -14 17 -11 23
4 5 2 12 -3 16 -5 3 -14 -2 -19 -12z"/>
<path d="M4542 1291 c-11 -25 -11 -34 1 -57 9 -18 17 -23 21 -15 4 7 2 19 -5
27 -10 13 -10 17 1 24 10 6 11 14 4 29 -9 20 -10 20 -22 -8z"/>
<path d="M1890 1295 c0 -21 -16 -26 -45 -13 -18 8 -29 8 -36 1 -8 -8 -3 -16
19 -27 40 -21 47 -20 71 5 16 17 23 19 40 10 26 -14 26 -16 0 -18 -28 -2 -37
-12 -20 -22 18 -11 51 -2 51 14 0 7 11 15 24 17 17 4 23 1 19 -9 -3 -7 -11
-13 -19 -13 -17 0 -19 -27 -1 -33 20 -7 47 4 47 20 0 8 9 17 20 20 22 6 27 22
8 25 -7 0 -17 2 -23 3 -5 2 -16 3 -22 4 -7 0 -13 8 -13 16 0 18 -23 19 -49 3
-15 -9 -25 -9 -45 0 -21 9 -26 9 -26 -3z"/>
<path d="M2730 1281 c0 -11 11 -23 28 -30 15 -6 39 -20 54 -33 15 -12 31 -19
34 -15 8 8 -33 47 -49 47 -5 0 -7 9 -4 19 5 21 -10 31 -44 31 -12 0 -19 -7
-19 -19z"/>
<path d="M2834 1284 c-15 -6 -6 -41 12 -48 8 -3 14 -12 14 -21 0 -8 7 -15 15
-15 8 0 15 -6 15 -14 0 -17 33 -27 51 -15 12 8 11 11 -1 19 -8 5 -21 7 -29 5
-11 -4 -11 -3 -2 9 10 11 8 17 -6 25 -15 9 -16 12 -3 20 17 12 30 5 30 -15 0
-8 6 -14 14 -14 8 0 18 -9 21 -20 7 -22 22 -25 45 -10 18 11 10 21 -19 23 -21
1 -21 2 -5 14 10 7 22 13 28 13 7 0 6 4 0 10 -7 7 -19 8 -37 1 -20 -8 -27 -7
-31 6 -5 11 -15 14 -41 9 -27 -5 -37 -3 -41 9 -6 15 -11 17 -30 9z"/>
<path d="M3674 1266 c-21 -21 -22 -46 -2 -46 6 0 8 7 4 15 -3 8 0 14 5 12 6
-1 13 8 15 21 5 26 5 26 -22 -2z"/>
<path d="M937 1260 c7 -25 -12 -26 -26 -2 -9 14 -10 13 -11 -11 0 -24 -2 -26
-19 -17 -16 8 -21 6 -27 -12 -6 -20 -8 -20 -19 -5 -13 18 -31 24 -20 7 12 -20
-7 -32 -21 -13 -14 17 -14 17 -12 -2 2 -12 -3 -20 -12 -20 -8 0 -19 -6 -23
-12 -11 -18 -25 -16 -30 5 -4 13 -5 12 -6 -5 0 -12 -5 -23 -11 -25 -11 -4 -1
-48 11 -48 5 0 9 9 9 20 0 25 16 26 29 3 9 -16 10 -16 11 4 0 27 18 40 26 19
9 -25 24 -19 24 9 0 29 15 33 29 8 8 -16 10 -14 16 10 7 28 19 35 30 17 10
-17 25 -11 25 10 0 25 28 27 37 3 6 -14 9 -12 18 11 10 25 9 32 -6 47 -24 24
-28 24 -22 -1z"/>
<path d="M1730 1262 c0 -10 5 -23 12 -30 9 -9 6 -12 -16 -12 -18 0 -26 -4 -24
-12 8 -24 39 -20 64 7 25 27 26 27 40 7 9 -13 21 -18 34 -15 27 7 20 27 -11
32 -13 1 -36 12 -50 22 -34 24 -49 24 -49 1z"/>
<path d="M4230 1270 c0 -5 9 -19 20 -30 11 -11 17 -26 14 -33 -3 -8 3 -20 12
-28 15 -12 16 -12 10 9 -5 16 -3 24 8 28 9 3 16 13 16 21 0 10 -6 13 -16 9
-11 -4 -22 1 -31 14 -15 21 -33 27 -33 10z"/>
<path d="M1655 1254 c-8 -12 -15 -13 -37 -5 -22 8 -29 7 -37 -7 -8 -14 -12
-15 -35 -2 -21 11 -29 11 -39 1 -9 -10 -8 -14 6 -22 14 -8 16 -14 6 -25 -7 -9
-8 -14 -1 -14 6 0 17 -3 26 -6 11 -4 16 -1 16 10 0 9 5 16 11 16 7 0 17 7 24
17 8 11 18 14 31 8 18 -8 18 -8 -1 -13 -31 -6 -42 -21 -25 -32 25 -16 48 -11
55 10 3 11 12 20 20 20 17 0 27 42 12 52 -17 11 -21 10 -32 -8z"/>
<path d="M4410 1251 c0 -11 5 -23 10 -26 6 -4 10 5 10 19 0 14 -4 26 -10 26
-5 0 -10 -9 -10 -19z"/>
<path d="M2164 1246 c-10 -8 -15 -18 -11 -22 4 -4 15 0 24 9 22 21 12 31 -13
13z"/>
<path d="M3720 1252 c0 -13 39 -32 54 -26 9 3 17 -3 21 -15 3 -12 10 -21 14
-21 12 0 51 40 51 53 -1 7 -6 5 -14 -5 -18 -24 -46 -23 -46 2 0 18 -2 19 -21
8 -17 -10 -23 -10 -26 0 -5 13 -33 17 -33 4z"/>
<path d="M4163 1253 c-18 -6 -16 -33 2 -33 8 0 19 -9 25 -20 7 -12 16 -17 27
-13 14 5 15 1 10 -26 -6 -28 -4 -32 9 -27 8 3 24 1 35 -4 13 -7 19 -7 19 -1 0
6 -11 13 -24 17 -19 4 -24 12 -22 37 1 29 -1 32 -26 29 -22 -3 -28 1 -28 17 0
22 -9 30 -27 24z"/>
<path d="M1435 1230 c-9 -28 2 -40 36 -40 37 0 37 13 0 39 -29 21 -30 21 -36
1z"/>
<path d="M3052 1239 c-28 -11 -24 -33 6 -37 12 -2 19 -9 16 -16 -5 -14 22 -26
44 -19 18 7 15 21 -5 25 -11 2 -18 12 -18 27 0 28 -11 33 -43 20z"/>
<path d="M4510 1227 c0 -14 -7 -27 -15 -31 -8 -3 -15 -15 -15 -26 0 -11 -6
-19 -12 -17 -7 1 -14 -8 -16 -20 -2 -17 4 -24 35 -33 21 -7 44 -17 51 -23 18
-14 26 -2 18 28 -4 14 -18 31 -31 37 -14 6 -25 18 -25 25 0 15 13 10 43 -15
16 -14 17 -13 17 10 0 14 -7 31 -15 38 -8 7 -15 18 -15 26 0 7 -4 16 -10 19
-6 3 -10 -5 -10 -18z"/>
<path d="M3142 1232 c-17 -11 -6 -39 18 -45 10 -3 28 2 39 10 21 14 41 10 41
-8 0 -5 -13 -9 -30 -9 -20 0 -30 -5 -30 -15 0 -8 9 -15 20 -15 11 0 20 -4 20
-10 0 -5 6 -7 14 -4 8 3 12 12 9 20 -6 15 17 19 33 6 14 -12 134 -2 134 11 -1
29 -17 39 -40 27 -20 -11 -25 -10 -37 5 -11 16 -16 17 -40 6 -23 -11 -29 -10
-40 5 -11 15 -17 16 -40 5 -22 -10 -28 -10 -35 3 -10 18 -17 19 -36 8z m198
-52 c0 -5 -7 -10 -15 -10 -8 0 -15 5 -15 10 0 6 7 10 15 10 8 0 15 -4 15 -10z"/>
<path d="M2068 1223 c-18 -4 -25 -22 -10 -24 4 0 16 -3 27 -6 39 -10 68 -8 72
5 3 7 -4 12 -17 12 -12 0 -29 4 -38 8 -9 5 -25 7 -34 5z"/>
<path d="M2742 1221 c-18 -11 3 -33 29 -29 13 1 23 7 22 13 -2 13 -38 25 -51
16z"/>
<path d="M3730 1214 c0 -8 5 -12 10 -9 6 4 8 11 5 16 -9 14 -15 11 -15 -7z"/>
<path d="M1872 1208 c3 -7 17 -14 32 -16 20 -3 27 0 24 10 -3 7 -17 14 -32 16
-20 3 -27 0 -24 -10z"/>
<path d="M4363 1210 c9 -6 17 -20 17 -30 0 -11 5 -20 11 -20 6 0 9 12 7 28 -2
20 -9 28 -28 30 -22 2 -23 1 -7 -8z"/>
<path d="M1957 1202 c-26 -5 -15 -26 16 -30 18 -2 27 1 27 11 0 17 -17 25 -43
19z"/>
<path d="M2677 1203 c-10 -10 13 -33 34 -33 29 0 32 19 4 30 -31 12 -30 12
-38 3z"/>
<path d="M3871 1201 c-15 -10 -8 -41 8 -41 6 0 7 8 4 18 -6 14 -4 15 9 5 18
-16 32 -5 17 14 -13 15 -19 16 -38 4z"/>
<path d="M3963 1200 c-24 -10 -37 -39 -27 -64 7 -17 24 -22 24 -6 0 22 22 8
34 -21 8 -19 16 -27 20 -20 13 21 34 11 41 -20 5 -21 10 -27 15 -19 8 13 41 7
39 -7 -4 -25 2 -35 14 -24 18 14 27 4 27 -28 0 -24 1 -24 14 -5 12 16 16 17
20 4 4 -8 20 -15 36 -16 24 -1 30 3 30 19 0 14 5 18 20 14 16 -4 20 0 20 19 0
17 6 24 19 24 14 0 21 8 23 28 2 15 9 26 15 25 17 -4 28 46 14 60 -8 8 -11 6
-11 -10 0 -11 -7 -26 -15 -33 -8 -7 -15 -19 -15 -27 0 -10 -6 -12 -21 -8 -18
6 -20 4 -15 -13 4 -11 2 -23 -4 -27 -5 -3 -10 -1 -10 4 0 6 -5 11 -11 11 -6 0
-8 -9 -4 -20 7 -23 -13 -28 -34 -7 -10 10 -15 9 -25 -5 -17 -23 -22 -23 -29 3
-4 15 -11 20 -21 16 -12 -5 -16 1 -17 26 -1 18 -3 24 -6 15 -2 -10 -11 -18
-19 -18 -17 0 -19 27 -1 33 6 2 9 8 5 12 -4 4 -15 2 -24 -6 -14 -11 -18 -11
-29 4 -7 9 -22 17 -34 17 -19 0 -21 4 -16 23 6 18 5 20 -6 10 -20 -19 -39 -16
-39 7 0 11 6 20 14 20 8 0 18 5 21 10 7 12 -2 12 -32 0z m257 -180 c0 -5 -5
-10 -11 -10 -5 0 -7 5 -4 10 3 6 8 10 11 10 2 0 4 -4 4 -10z"/>
<path d="M4145 1200 c-3 -5 -1 -10 4 -10 6 0 11 5 11 10 0 6 -2 10 -4 10 -3 0
-8 -4 -11 -10z"/>
<path d="M1767 1194 c-11 -12 3 -24 29 -24 15 0 24 6 24 15 0 15 -40 21 -53 9z"/>
<path d="M3447 1187 c-18 -12 -18 -14 -2 -27 9 -8 33 -14 53 -14 21 0 39 -2
42 -5 3 -4 16 -11 30 -18 33 -14 72 9 52 29 -10 10 -17 10 -32 0 -16 -10 -21
-8 -34 10 -13 18 -19 20 -40 10 -21 -9 -26 -8 -38 9 -11 17 -15 18 -31 6z"/>
<path d="M1656 1174 c-3 -7 0 -15 7 -18 7 -2 1 -5 -13 -6 -24 -1 -24 -1 -6
-15 10 -8 23 -12 27 -9 5 3 9 -2 9 -10 0 -19 45 -22 56 -5 8 13 -14 29 -32 22
-6 -2 -15 1 -19 7 -4 7 2 14 14 17 20 5 29 22 14 24 -36 6 -53 4 -57 -7z"/>
<path d="M1847 1178 c-10 -5 -15 -13 -12 -19 10 -15 55 -11 55 5 0 19 -22 26
-43 14z"/>
<path d="M2015 1180 c-3 -5 -3 -14 0 -20 4 -6 -5 -10 -19 -10 -16 0 -26 -6
-26 -15 0 -29 46 -22 78 12 19 20 21 28 10 34 -18 12 -36 11 -43 -1z"/>
<path d="M2797 1183 c-3 -3 -3 -12 0 -21 5 -12 2 -14 -13 -8 -34 14 -49 12
-46 -6 3 -21 -2 -22 -29 -8 -16 9 -19 7 -19 -10 0 -21 27 -28 46 -12 9 9 66
26 117 37 15 3 27 10 27 16 0 6 -7 9 -15 5 -8 -3 -26 -1 -39 4 -13 5 -26 6
-29 3z"/>
<path d="M3005 1170 c-8 -13 20 -24 40 -16 8 3 15 10 15 16 0 13 -47 13 -55 0z"/>
<path d="M1580 1166 c0 -2 7 -6 15 -10 8 -3 15 -1 15 4 0 6 -7 10 -15 10 -8 0
-15 -2 -15 -4z"/>
<path d="M1741 1161 c-7 -5 -11 -13 -7 -19 8 -13 48 -3 43 11 -5 15 -20 18
-36 8z"/>
<path d="M1918 1163 c-21 -5 -24 -19 -5 -26 19 -6 48 4 44 16 -4 13 -16 16
-39 10z"/>
<path d="M2080 1160 c0 -18 35 -45 53 -42 25 5 21 25 -10 40 -33 15 -43 15
-43 2z"/>
<path d="M3119 1159 c-17 -10 -9 -18 21 -21 12 -2 25 2 27 8 5 15 -31 24 -48
13z"/>
<path d="M2940 1145 c0 -9 9 -15 25 -15 16 0 25 6 25 15 0 9 -9 15 -25 15 -16
0 -25 -6 -25 -15z"/>
<path d="M1795 1141 c-3 -6 -3 -15 0 -21 4 -6 -5 -10 -19 -10 -16 0 -26 -6
-26 -15 0 -23 47 -19 60 5 6 11 18 20 26 20 9 0 14 6 12 13 -6 16 -44 21 -53
8z"/>
<path d="M2867 1142 c-10 -2 -16 -9 -14 -15 5 -15 59 -16 64 -1 4 13 -23 22
-50 16z"/>
<path d="M3050 1140 c-9 -6 -7 -11 9 -19 21 -12 41 -8 41 8 0 12 -36 20 -50
11z"/>
<path d="M3658 1136 c-10 -7 -18 -18 -18 -25 0 -6 -5 -11 -11 -11 -5 0 -8 -4
-5 -9 6 -10 57 -8 74 3 8 5 8 13 0 31 -13 28 -16 29 -40 11z"/>
<path d="M1860 1116 c0 -17 18 -25 43 -18 26 7 15 26 -16 30 -19 2 -27 -1 -27
-12z"/>
<path d="M2045 1120 c-9 -15 5 -32 21 -26 21 8 43 -4 37 -20 -3 -8 -12 -14
-20 -14 -9 0 -13 -6 -10 -14 3 -7 0 -13 -6 -13 -33 1 -47 -4 -47 -18 0 -25 40
-17 77 16 32 28 37 29 52 15 22 -20 31 -20 31 -1 0 8 -7 15 -15 15 -9 0 -12 6
-9 15 4 10 0 15 -14 15 -10 0 -31 9 -45 20 -28 22 -43 25 -52 10z"/>
<path d="M2970 1116 c-14 -8 -28 -12 -32 -10 -4 3 -16 1 -25 -5 -16 -9 -16
-11 7 -19 27 -10 50 -6 50 10 0 5 10 9 23 8 46 -4 53 0 33 15 -24 18 -24 18
-56 1z"/>
<path d="M3155 1121 c-10 -18 15 -22 37 -7 l22 16 -26 0 c-15 0 -29 -4 -33 -9z"/>
<path d="M2793 1107 c5 -13 -1 -14 -29 -10 -39 6 -46 -9 -10 -25 19 -9 27 -8
36 4 7 8 24 14 37 14 34 0 24 24 -12 28 -21 3 -26 0 -22 -11z"/>
<path d="M3725 1110 c-3 -5 -1 -10 4 -10 6 0 11 -4 11 -10 0 -5 -10 -10 -22
-10 -13 0 -31 -7 -41 -14 -15 -11 -15 -15 -3 -25 10 -9 16 -9 21 -1 5 8 11 8
20 0 14 -12 40 11 27 25 -4 4 3 2 16 -4 18 -9 27 -10 37 -1 8 7 19 9 25 5 15
-9 2 -26 -17 -23 -24 4 -27 -19 -3 -32 25 -14 41 -5 33 18 -6 16 -6 16 11 0
19 -20 26 -21 50 -12 18 7 20 22 7 43 -7 10 -13 11 -29 2 -19 -10 -23 -8 -37
20 -16 29 -17 30 -35 14 -17 -16 -19 -15 -30 4 -11 22 -35 28 -45 11z"/>
<path d="M1930 1096 c0 -8 6 -16 13 -19 17 -6 49 12 42 24 -10 15 -55 11 -55
-5z"/>
<path d="M3090 1096 c0 -11 10 -16 31 -16 38 0 35 24 -4 28 -19 2 -27 -1 -27
-12z"/>
<path d="M2020 1092 c-8 -3 -21 -13 -28 -24 -7 -10 -20 -18 -28 -18 -9 0 -14
-6 -11 -12 6 -21 52 -16 51 5 -1 12 5 17 22 17 14 0 24 6 24 14 0 19 -11 25
-30 18z"/>
<path d="M4416 1078 c-3 -13 -6 -26 -6 -29 0 -8 51 -31 57 -25 3 2 20 -2 38
-10 45 -18 45 -18 45 10 0 20 -9 28 -47 42 -27 9 -52 21 -57 26 -16 13 -23 9
-30 -14z"/>
<path d="M1810 1070 c-6 -11 -17 -20 -25 -20 -8 0 -18 -6 -22 -13 -4 -8 -16
-17 -27 -20 -11 -4 -16 -13 -12 -22 3 -8 1 -15 -4 -15 -6 0 -10 -7 -10 -15 0
-21 17 -19 30 5 6 11 18 20 26 20 11 0 13 6 9 21 -5 14 -3 19 4 15 14 -9 53
12 46 25 -4 5 -3 9 2 8 24 -4 43 3 43 16 0 23 -47 19 -60 -5z"/>
<path d="M2683 1070 c3 -13 0 -20 -9 -20 -8 0 -14 -7 -14 -15 0 -19 14 -19 30
0 7 9 19 14 26 11 7 -3 18 1 24 9 8 10 4 15 -21 24 -42 14 -42 14 -36 -9z"/>
<path d="M2849 1074 c-6 -8 -20 -14 -30 -14 -25 0 -34 -19 -12 -27 10 -3 32
-18 48 -34 35 -32 70 -41 70 -19 0 9 -11 16 -28 18 -15 2 -25 7 -22 12 3 5 -4
14 -15 20 -28 15 -25 31 6 28 15 -2 29 2 31 8 6 17 -35 24 -48 8z"/>
<path d="M3025 1080 c-8 -13 20 -24 40 -16 8 3 15 10 15 16 0 13 -47 13 -55 0z"/>
<path d="M1723 1073 c-7 -3 -13 -11 -13 -20 0 -17 41 -14 47 3 4 13 -16 23
-34 17z"/>
<path d="M1885 1060 c-8 -12 17 -23 41 -18 10 1 19 9 22 16 5 15 -54 17 -63 2z"/>
<path d="M2950 1061 c0 -6 5 -13 11 -16 15 -10 61 4 54 15 -8 13 -65 13 -65 1z"/>
<path d="M3077 1053 c-12 -11 -8 -21 13 -26 24 -6 38 12 19 24 -17 11 -24 11
-32 2z"/>
<path d="M2890 1041 c0 -13 27 -21 45 -15 8 4 12 10 9 15 -7 12 -54 12 -54 0z"/>
<path d="M1836 1025 c-7 -18 21 -27 46 -14 23 13 18 21 -16 24 -14 2 -27 -3
-30 -10z"/>
<path d="M2735 1031 c-3 -6 -14 -11 -24 -11 -10 0 -26 -9 -37 -21 -15 -17 -16
-22 -4 -29 8 -5 19 -6 24 -3 6 4 5 8 -2 11 -7 2 -12 8 -12 14 0 6 6 6 15 -2
20 -17 46 -6 38 16 -5 14 -3 16 13 10 32 -13 49 -12 49 4 0 18 -50 26 -60 11z"/>
<path d="M3007 1033 c-13 -12 -7 -21 18 -25 22 -5 44 7 34 16 -10 9 -46 15
-52 9z"/>
<path d="M4374 1015 c-3 -14 -12 -25 -19 -25 -8 0 -16 -13 -20 -30 -4 -16 -12
-28 -18 -27 -6 1 -12 -5 -14 -14 -4 -16 15 -22 119 -35 36 -5 109 -34 131 -52
15 -13 17 -13 17 1 0 44 -18 63 -77 80 -32 9 -76 19 -97 22 -45 6 -51 9 -42
23 4 6 31 5 73 -3 79 -15 105 -24 116 -39 4 -6 6 4 5 23 -3 28 -9 35 -38 46
-19 8 -52 16 -72 20 -24 4 -38 11 -38 20 0 25 -19 17 -26 -10z"/>
<path d="M2102 1006 c-11 -14 -32 -30 -46 -36 -32 -12 -26 -30 9 -30 14 0 29
9 35 20 6 12 23 25 36 31 14 5 24 15 21 22 -7 22 -34 19 -55 -7z"/>
<path d="M3718 1023 c-20 -5 -24 -28 -7 -39 6 -3 16 -1 22 5 8 8 7 11 -3 11
-7 0 -10 3 -7 6 4 4 13 1 22 -6 8 -7 22 -9 31 -6 13 5 14 9 4 21 -12 15 -29
17 -62 8z"/>
<path d="M3937 1019 c-9 -6 -15 -14 -12 -18 2 -5 -17 -8 -43 -7 -26 1 -53 -2
-59 -7 -7 -5 -19 -7 -28 -4 -20 8 -29 -11 -15 -28 16 -20 44 -20 36 0 -6 16 9
21 18 6 4 -5 27 -9 51 -9 37 1 45 4 40 17 -4 11 -1 11 14 -3 27 -25 20 -33
-28 -30 -45 2 -54 -4 -41 -26 7 -11 32 -14 99 -15 105 0 131 -19 31 -22 -139
-4 -227 -10 -238 -17 -7 -4 -16 -5 -21 -1 -6 3 -15 -3 -21 -14 -10 -19 1 -37
14 -24 4 4 15 8 24 8 55 4 63 6 57 15 -3 5 7 3 21 -5 15 -8 32 -11 37 -8 5 3
55 6 111 7 109 1 136 11 136 48 0 14 -5 18 -19 13 -15 -5 -21 0 -26 26 -5 22
-10 28 -18 20 -16 -16 -27 -13 -27 7 0 9 -4 23 -9 31 -8 12 -12 12 -25 2 -13
-11 -16 -11 -16 1 0 28 -24 48 -43 37z m63 -74 c0 -9 -6 -12 -15 -9 -8 4 -15
10 -15 15 0 5 7 9 15 9 8 0 15 -7 15 -15z"/>
<path d="M1923 1012 c-24 -4 -32 -21 -10 -23 21 -2 42 2 50 11 11 10 -12 17
-40 12z"/>
<path d="M2934 1009 c-6 -10 36 -29 49 -22 4 2 7 10 7 16 0 14 -48 19 -56 6z"/>
<path d="M1790 986 c0 -21 11 -25 38 -15 28 11 20 29 -14 29 -14 0 -24 -6 -24
-14z"/>
<path d="M1975 991 c-3 -6 -3 -15 0 -21 9 -14 50 -5 50 11 0 17 -40 25 -50 10z"/>
<path d="M2155 991 c-10 -17 12 -21 25 -6 10 12 10 15 -3 15 -9 0 -18 -4 -22
-9z"/>
<path d="M2790 985 c-7 -9 -19 -14 -26 -11 -7 3 -18 -2 -25 -10 -6 -8 -19 -13
-28 -12 -11 2 -15 -4 -13 -21 2 -19 -1 -21 -11 -13 -10 9 -17 8 -25 0 -16 -16
-15 -28 3 -28 30 0 15 -44 -24 -71 l-38 -26 -42 29 c-47 32 -65 32 -33 0 11
-11 23 -17 27 -14 3 4 4 0 1 -8 -9 -24 9 -43 33 -35 11 3 21 11 21 16 0 5 9 9
19 9 10 0 21 7 25 15 7 20 42 19 50 -1 9 -24 8 -24 -19 -14 -25 10 -42 -1 -30
-20 9 -14 53 -12 57 2 3 7 13 13 24 13 31 0 23 30 -9 33 -19 2 -27 8 -23 17 3
8 0 16 -7 19 -7 3 1 3 16 -1 19 -4 34 0 48 13 12 11 23 18 25 17 2 -1 9 -1 16
2 7 2 22 5 33 8 11 2 19 9 17 15 -1 8 6 11 20 7 27 -6 101 18 106 34 2 6 -8
11 -22 11 -17 0 -26 -5 -26 -16 0 -11 -6 -14 -22 -9 -13 4 -27 12 -33 19 -10
12 -61 46 -68 46 -3 0 -10 -7 -17 -15z m15 -14 c-3 -6 10 -13 30 -17 30 -5 34
-9 24 -21 -8 -9 -21 -12 -36 -8 -16 4 -23 1 -23 -9 0 -9 -7 -12 -20 -9 -11 3
-26 1 -33 -4 -17 -14 -57 -23 -57 -13 0 13 27 31 41 28 8 -2 14 4 13 12 -1 10
8 15 25 15 19 0 25 5 23 18 -2 9 2 17 8 17 6 0 9 -4 5 -9z m-45 -91 c0 -5 -4
-10 -10 -10 -5 0 -10 5 -10 10 0 6 5 10 10 10 6 0 10 -4 10 -10z"/>
<path d="M3050 990 c0 -16 43 -29 58 -18 21 18 13 28 -23 28 -19 0 -35 -5 -35
-10z"/>
<path d="M2994 979 c-3 -6 -2 -15 4 -21 12 -12 43 -7 43 7 1 14 -39 26 -47 14z"/>
<path d="M1856 965 c-3 -8 -17 -20 -32 -25 -15 -6 -24 -16 -21 -23 3 -8 -3
-14 -16 -14 -28 -3 -44 -20 -31 -33 12 -12 64 6 64 22 0 5 12 13 26 18 23 9
24 12 13 27 -12 14 -12 16 1 11 20 -7 63 9 55 22 -10 16 -52 12 -59 -5z"/>
<path d="M3725 970 c-8 -14 3 -30 29 -40 l21 -9 -22 -7 c-13 -3 -23 -13 -23
-20 0 -8 2 -14 4 -14 2 0 12 -3 22 -7 14 -5 16 -3 11 10 -5 14 -3 16 11 8 9
-5 35 -6 56 -2 38 6 39 7 22 24 -13 13 -27 16 -46 12 -22 -5 -28 -2 -33 13 -6
24 -43 47 -52 32z"/>
<path d="M2310 960 c-33 -4 -46 -10 -48 -23 -5 -24 15 -47 40 -47 29 0 78 32
78 51 0 22 -15 26 -70 19z"/>
<path d="M1740 946 c0 -8 4 -18 10 -21 13 -8 52 14 45 26 -10 15 -55 11 -55
-5z"/>
<path d="M1924 949 c-3 -6 -2 -15 4 -21 12 -12 55 8 47 23 -8 12 -42 12 -51
-2z"/>
<path d="M2111 951 c-16 -11 -4 -34 14 -27 7 2 18 -1 24 -7 13 -13 15 -28 4
-26 -25 4 -43 -3 -43 -17 0 -13 7 -15 29 -11 25 5 28 3 24 -13 -4 -15 0 -20
15 -20 11 0 25 -7 32 -15 13 -16 40 -21 40 -7 0 4 -16 16 -35 26 -25 14 -35
26 -35 43 0 14 6 23 15 23 8 0 15 4 15 10 0 13 -38 32 -50 25 -6 -4 -9 -1 -8
6 4 16 -22 22 -41 10z"/>
<path d="M2474 948 c-12 -19 43 -58 81 -58 38 0 56 30 35 55 -15 18 -106 20
-116 3z"/>
<path d="M3100 956 c0 -2 7 -9 15 -16 12 -10 15 -10 15 4 0 9 -7 16 -15 16 -8
0 -15 -2 -15 -4z"/>
<path d="M3046 942 c-8 -13 8 -28 29 -27 27 0 25 27 -2 31 -12 2 -24 0 -27 -4z"/>
<path d="M1986 925 c-7 -20 43 -33 54 -14 5 7 6 17 4 21 -9 14 -52 9 -58 -7z"/>
<path d="M1717 924 c-11 -11 3 -24 25 -24 17 0 18 2 8 15 -13 16 -23 19 -33 9z"/>
<path d="M2983 909 c-4 -13 -10 -16 -27 -10 -27 10 -46 4 -40 -14 5 -11 -2
-13 -32 -8 -33 5 -37 4 -31 -12 6 -13 4 -16 -10 -10 -25 9 -24 9 -60 -6 -18
-7 -33 -17 -33 -22 0 -12 28 -20 47 -13 15 6 15 8 3 17 -10 6 -5 7 16 3 19 -4
34 -1 38 5 4 6 18 11 31 11 13 0 27 5 30 10 3 6 16 10 29 10 12 0 27 5 33 11
7 7 22 12 35 13 30 1 30 29 -1 31 -15 1 -25 -4 -28 -16z"/>
<path d="M1874 909 c-3 -6 -2 -15 4 -21 11 -11 52 6 52 22 0 14 -47 13 -56 -1z"/>
<path d="M2072 909 c-26 -10 -21 -29 8 -29 18 0 35 26 22 34 -4 2 -17 0 -30
-5z"/>
<path d="M3100 904 c-7 -8 -22 -14 -34 -14 -12 0 -26 -4 -31 -9 -6 -5 -21 -11
-35 -13 -18 -2 -24 -8 -22 -22 2 -13 0 -16 -10 -10 -34 22 -65 11 -48 -16 8
-13 14 -13 42 -2 31 13 54 20 70 21 4 1 5 8 2 16 -5 12 -2 14 17 7 30 -11 50
-5 42 14 -3 9 2 14 15 14 25 0 37 16 18 23 -8 3 -20 -1 -26 -9z"/>
<path d="M1935 890 c-10 -16 4 -30 30 -30 22 0 40 22 28 34 -10 10 -51 7 -58
-4z"/>
<path d="M2412 880 c-11 -18 -10 -20 18 -20 28 0 30 2 20 20 -6 11 -14 20 -18
20 -4 0 -13 -9 -20 -20z"/>
<path d="M2012 869 c-28 -11 -20 -29 13 -29 22 0 40 22 28 34 -8 7 -12 7 -41
-5z"/>
<path d="M1555 851 c-31 -5 -40 -10 -40 -26 0 -15 10 -22 38 -30 46 -11 92 9
92 40 0 22 -24 27 -90 16z"/>
<path d="M1884 849 c-12 -19 11 -30 40 -19 23 8 26 7 24 -8 -4 -22 34 -29 51
-9 9 12 3 17 -38 31 -59 19 -68 20 -77 5z"/>
<path d="M3090 845 c-7 -8 -21 -15 -31 -15 -10 0 -21 -5 -24 -10 -7 -12 34
-30 53 -23 8 3 10 0 6 -10 -6 -15 31 -35 43 -23 4 3 1 6 -5 6 -7 0 -12 12 -12
26 0 19 4 25 15 21 25 -10 26 10 0 27 -30 20 -30 20 -45 1z"/>
<path d="M2057 843 c-4 -3 -1 -13 6 -21 10 -13 9 -15 -3 -10 -24 9 -61 -9 -54
-26 6 -17 29 -11 59 14 11 9 28 20 38 23 9 4 17 11 17 17 0 11 -53 14 -63 3z"/>
<path d="M3220 835 c0 -18 37 -43 70 -46 44 -5 91 11 88 29 -6 29 -158 45
-158 17z"/>
<path d="M2121 817 c-9 -12 -8 -16 4 -21 20 -7 47 4 42 18 -6 17 -32 19 -46 3z"/>
<path d="M2855 820 c-10 -16 5 -30 31 -30 15 0 24 5 22 12 -6 16 -46 29 -53
18z"/>
<path d="M1328 808 c-41 -11 -50 -35 -23 -58 17 -14 52 -5 83 23 46 42 21 57
-60 35z"/>
<path d="M2977 803 c-9 -14 6 -29 31 -30 17 -1 22 3 20 15 -3 18 -42 29 -51
15z"/>
<path d="M3500 797 c0 -16 45 -48 92 -66 21 -8 31 -7 42 5 31 30 3 49 -102 70
-25 5 -32 3 -32 -9z"/>
<path d="M2165 791 c-3 -5 -1 -12 5 -16 13 -8 50 3 50 16 0 12 -47 12 -55 0z"/>
<path d="M2804 778 c3 -13 3 -17 0 -10 -6 13 -40 17 -48 4 -8 -13 8 -31 26
-29 9 2 23 8 31 15 8 7 21 11 28 10 8 -2 14 4 14 12 0 9 -11 16 -28 18 -26 3
-28 1 -23 -20z"/>
<path d="M2065 780 c-9 -14 5 -32 20 -26 8 3 19 -2 26 -10 15 -18 51 -15 57 5
4 11 -2 13 -27 8 -29 -6 -32 -5 -26 13 5 16 2 20 -19 20 -14 0 -28 -4 -31 -10z"/>
<path d="M2916 783 c-10 -10 15 -33 35 -33 37 0 31 35 -8 37 -11 1 -24 -1 -27
-4z"/>
<path d="M4596 745 c-8 -43 5 -72 15 -35 10 37 10 70 0 70 -5 0 -12 -16 -15
-35z"/>
<path d="M1446 755 c-8 -23 -9 -23 19 -17 14 2 24 10 22 16 -6 18 -34 18 -41
1z"/>
<path d="M2214 759 c-3 -6 -2 -14 2 -19 12 -11 57 7 49 20 -8 13 -42 13 -51
-1z"/>
<path d="M2864 759 c-8 -13 5 -26 31 -31 12 -2 20 3 20 11 0 18 -42 34 -51 20z"/>
<path d="M3036 761 c-3 -5 7 -14 24 -19 30 -11 47 -2 35 18 -8 12 -52 13 -59
1z"/>
<path d="M3430 760 c-18 -11 -14 -15 25 -24 29 -7 29 -7 11 13 -11 12 -20 21
-20 21 -1 0 -8 -4 -16 -10z"/>
<path d="M1847 753 c-10 -3 -16 -10 -14 -16 5 -17 52 -15 52 2 0 16 -12 21
-38 14z"/>
<path d="M3150 751 c0 -13 38 -33 53 -28 7 2 -3 11 -20 21 -18 9 -33 12 -33 7z"/>
<path d="M1551 743 c0 -5 15 -20 32 -34 25 -20 37 -25 55 -18 34 13 27 25 -27
43 -56 18 -61 19 -60 9z"/>
<path d="M2986 742 c-11 -18 12 -35 39 -28 26 7 27 8 9 21 -21 16 -40 19 -48
7z"/>
<path d="M3284 731 c-23 -9 -48 -22 -57 -30 -9 -7 -23 -11 -32 -8 -8 4 -17 2
-21 -4 -9 -15 14 -36 39 -35 17 1 21 7 19 26 -2 19 0 22 10 12 21 -21 52 -13
81 19 15 17 27 33 27 35 0 7 -25 2 -66 -15z"/>
<path d="M1715 730 c-16 -25 21 -36 53 -16 10 6 12 3 10 -10 -4 -24 27 -30 48
-10 14 15 13 17 -15 22 -17 4 -34 11 -37 15 -7 12 -51 11 -59 -1z"/>
<path d="M1913 729 c-13 -4 -23 -13 -23 -19 0 -13 47 -13 56 1 10 17 -9 28
-33 18z"/>
<path d="M3099 724 c-8 -10 -8 -14 0 -14 6 0 11 -5 11 -11 0 -8 -4 -8 -15 1
-8 6 -23 9 -35 5 -17 -5 -19 -10 -9 -21 15 -18 43 -18 59 1 7 9 22 14 34 13
31 -4 26 24 -6 33 -18 5 -31 3 -39 -7z"/>
<path d="M2927 713 c-3 -5 0 -12 7 -18 10 -9 20 -10 50 -6 5 0 3 8 -4 16 -13
16 -46 20 -53 8z"/>
<path d="M1656 685 c-3 -9 1 -18 11 -22 17 -7 45 7 51 25 6 18 -55 15 -62 -3z"/>
<path d="M3307 673 c-13 -12 -7 -21 23 -31 30 -11 52 1 34 18 -14 12 -50 21
-57 13z"/>
</g>
</svg>
